<svg width="181" height="180" viewBox="0 0 181 180" fill="none" xmlns="http://www.w3.org/2000/svg">
<g clip-path="url(#clip0_444_11556)">
<circle cx="90.75" cy="90" r="81" fill="#285C8A"/>
<path d="M9.75 90C9.75 45.2649 46.0149 9 90.75 9V171H32.8929C20.1114 171 9.75 160.639 9.75 147.857V90Z" fill="#285C8A"/>
<path d="M0.75 40.05C0.75 34.3339 5.38385 29.7 11.1 29.7C16.8161 29.7 21.45 34.3339 21.45 40.05V65.25H0.75V40.05Z" fill="#00BAB0"/>
<path d="M21.45 147.6C21.45 154.559 27.0912 160.2 34.05 160.2H101.55V38.7C101.55 33.7294 97.5205 29.7 92.55 29.7H9.75C16.6593 29.7 21.45 35.072 21.45 41.85V147.6Z" fill="#EDF1F5"/>
<path d="M32.7002 107.1C32.7002 106.106 33.5061 105.3 34.5002 105.3H88.5002C89.4943 105.3 90.3002 106.106 90.3002 107.1V108C90.3002 108.994 89.4943 109.8 88.5002 109.8H34.5002C33.5061 109.8 32.7002 108.994 32.7002 108V107.1Z" fill="#082946"/>
<path d="M32.7002 127.8C32.7002 126.806 33.5061 126 34.5002 126H88.5002C89.4943 126 90.3002 126.806 90.3002 127.8V128.7C90.3002 129.694 89.4943 130.5 88.5002 130.5H34.5002C33.5061 130.5 32.7002 129.694 32.7002 128.7V127.8Z" fill="#082946"/>
<path d="M32.7002 117.45C32.7002 116.456 33.5061 115.65 34.5002 115.65H88.5002C89.4943 115.65 90.3002 116.456 90.3002 117.45V118.35C90.3002 119.344 89.4943 120.15 88.5002 120.15H34.5002C33.5061 120.15 32.7002 119.344 32.7002 118.35V117.45Z" fill="#082946"/>
<path fill-rule="evenodd" clip-rule="evenodd" d="M82.6496 68.85C82.6496 80.5308 73.1804 90 61.4996 90C49.8188 90 40.3496 80.5308 40.3496 68.85C40.3496 57.1692 49.8188 47.7 61.4996 47.7C73.1804 47.7 82.6496 57.1692 82.6496 68.85ZM61.4996 87.3C71.6893 87.3 79.9496 79.0397 79.9496 68.85C79.9496 58.6604 71.6893 50.4 61.4996 50.4C51.31 50.4 43.0496 58.6604 43.0496 68.85C43.0496 79.0397 51.31 87.3 61.4996 87.3Z" fill="#5DABF0"/>
<path d="M77.25 68.85C77.25 77.5485 70.1985 84.6 61.5 84.6C52.8015 84.6 45.75 77.5485 45.75 68.85C45.75 60.1516 52.8015 53.1 61.5 53.1C70.1985 53.1 77.25 60.1516 77.25 68.85Z" fill="#082946"/>
<path d="M60.2888 58.253C60.784 57.2496 62.2148 57.2496 62.71 58.253L65.0206 62.9347C65.2172 63.3332 65.5973 63.6094 66.037 63.6733L71.2037 64.424C72.311 64.5849 72.7531 65.9457 71.9519 66.7267L68.2132 70.371C67.8951 70.6811 67.7499 71.128 67.825 71.5659L68.7076 76.7117C68.8967 77.8145 67.7392 78.6555 66.7488 78.1348L62.1276 75.7053C61.7343 75.4985 61.2644 75.4985 60.8712 75.7053L56.25 78.1348C55.2596 78.6555 54.102 77.8145 54.2912 76.7117L55.1737 71.5659C55.2489 71.128 55.1037 70.6811 54.7855 70.371L51.0469 66.7267C50.2456 65.9457 50.6877 64.5849 51.795 64.424L56.9617 63.6733C57.4014 63.6094 57.7815 63.3332 57.9782 62.9348L60.2888 58.253Z" fill="#F2A200"/>
<path d="M49.3499 143.1V146.7C49.3499 154.291 43.0206 160.2 35.2822 160.2H102.838C110.577 160.2 116.85 154.046 116.85 146.455V143.1H49.3499Z" fill="#00BAB0"/>
<path d="M173.043 73.7693C175.226 72.5327 177.6 70.1884 177.6 67.5L177.6 35.1C177.6 27.1471 171.153 20.7 163.2 20.7L130.8 20.7C128.111 20.7 125.767 23.0735 124.53 25.2569C125.969 24.641 127.553 24.3 129.217 24.3L162.532 24.3C169.114 24.3 174 29.1856 174 35.7673L174 69.0828C174 70.7466 173.659 72.3308 173.043 73.7693Z" fill="#00BAB0"/>
<path d="M120.087 29.7307C117.904 30.9673 115.53 33.3116 115.53 36L115.53 68.4C115.53 76.3529 121.977 82.8 129.93 82.8L162.33 82.8C165.019 82.8 167.363 80.4265 168.6 78.2431C167.161 78.859 165.577 79.2 163.913 79.2L130.598 79.2C124.016 79.2 119.13 74.3144 119.13 67.7327L119.13 34.4172C119.13 32.7534 119.471 31.1692 120.087 29.7307Z" fill="#377EBD"/>
<path d="M123.6 36.9C123.6 32.9236 126.823 29.7 130.8 29.7H161.4C165.376 29.7 168.6 32.9236 168.6 36.9V67.5C168.6 71.4765 165.376 74.7 161.4 74.7H130.8C126.823 74.7 123.6 71.4765 123.6 67.5V36.9Z" fill="#F2A200"/>
<path d="M163.112 41.5692C163.112 38.0484 160.252 35.1879 156.731 35.1879H151.629V39.4375H156.731C157.9 39.4375 158.863 40.3864 158.863 41.5692V46.6714H163.112V41.5692Z" fill="#082946"/>
<path d="M129.088 46.6714H133.337V41.5692C133.337 40.4002 134.286 39.4375 135.469 39.4375H140.571V35.1879H135.469C131.948 35.1879 129.088 38.0484 129.088 41.5692V46.6714Z" fill="#082946"/>
<path d="M143.583 62.2809L157.584 48.2805L154.572 45.2687L143.583 56.2571L137.505 50.1784L134.493 53.1903L143.583 62.2809Z" fill="#082946"/>
<path d="M140.571 64.9626H135.469C134.3 64.9626 133.337 64.0137 133.337 62.831V57.7287H129.088V62.831C129.088 66.3517 131.948 69.2122 135.469 69.2122H140.571V64.9626Z" fill="#082946"/>
<path d="M163.112 57.7287H158.863V62.831C158.863 64 157.914 64.9626 156.731 64.9626H151.629V69.2122H156.731C160.252 69.2122 163.112 66.3517 163.112 62.831V57.7287Z" fill="#082946"/>
<g clip-path="url(#clip1_444_11556)">
<path d="M139.21 133.477L159.205 138.834L149.152 176.351C148.871 177.4 147.53 177.705 146.823 176.881L140.926 170.005C140.564 169.583 139.979 169.426 139.454 169.611L130.909 172.617C129.885 172.977 128.876 172.042 129.157 170.994L139.21 133.477Z" fill="#00BAB0"/>
<path d="M165.194 133.477L145.2 138.834L155.252 176.351C155.533 177.4 156.874 177.705 157.581 176.881L163.478 170.005C163.84 169.583 164.425 169.426 164.951 169.611L173.495 172.617C174.519 172.977 175.528 172.042 175.247 170.994L165.194 133.477Z" fill="#377EBD"/>
<path d="M146.514 97.9823C148.868 95.9757 152.332 95.9757 154.686 97.9823L158.554 101.278C159.563 102.138 160.817 102.658 162.139 102.763L167.204 103.167C170.288 103.413 172.737 105.862 172.983 108.946L173.387 114.011C173.492 115.333 174.012 116.587 174.872 117.596L178.168 121.464C180.174 123.818 180.174 127.282 178.168 129.636L174.872 133.504C174.012 134.513 173.492 135.767 173.387 137.089L172.983 142.154C172.737 145.238 170.288 147.687 167.204 147.933L162.139 148.337C160.817 148.442 159.563 148.962 158.554 149.822L154.686 153.118C152.332 155.124 148.868 155.124 146.514 153.118L142.646 149.822C141.637 148.962 140.383 148.442 139.061 148.337L133.996 147.933C130.912 147.687 128.463 145.238 128.217 142.154L127.813 137.089C127.708 135.767 127.188 134.513 126.328 133.504L123.032 129.636C121.026 127.282 121.026 123.818 123.032 121.464L126.328 117.596C127.188 116.587 127.708 115.333 127.813 114.011L128.217 108.946C128.463 105.862 130.912 103.413 133.996 103.167L139.061 102.763C140.383 102.658 141.637 102.138 142.646 101.278L146.514 97.9823Z" fill="#BF7213"/>
<ellipse cx="150.6" cy="125.55" rx="20.25" ry="20.25" fill="#F2A200"/>
<ellipse cx="150.599" cy="125.55" rx="13.95" ry="13.95" fill="#082946"/>
</g>
</g>
<defs>
<clipPath id="clip0_444_11556">
<rect width="180" height="180" fill="white" transform="translate(0.75)"/>
</clipPath>
<clipPath id="clip1_444_11556">
<rect width="62.1" height="83.25" fill="white" transform="translate(119.55 94.5)"/>
</clipPath>
</defs>
</svg>
