<svg width="181" height="180" viewBox="0 0 181 180" fill="none" xmlns="http://www.w3.org/2000/svg">
<circle cx="90.75" cy="90" r="81" fill="#285C8A"/>
<path d="M9.75 90C-nan -nan -nan -nan 90.75 171L-nan -nanL90.75 171V9H32.8929C20.1114 9 9.75 19.3614 9.75 32.1429V90Z" fill="#285C8A"/>
<path d="M97.9571 61.4668C98.0876 61.3363 98.2658 61.2599 98.3962 61.1358C98.5267 61.0054 98.5967 60.8208 98.7271 60.6967C98.8576 60.5663 99.0549 60.5026 99.1822 60.3817C99.3126 60.2513 99.3731 60.0508 99.4972 59.9267C99.6308 59.793 99.7708 59.7485 99.8854 59.6149C99.9395 59.5544 99.7358 59.3889 99.6054 59.2712C99.4654 59.1439 99.0835 58.883 98.969 58.7684C98.8449 58.6444 97.8362 57.8839 96.8466 56.8943C95.5738 55.6215 95.1061 54.9628 94.9565 54.7623C94.8483 54.6223 94.5969 54.2755 94.4442 54.11C94.3774 54.0432 94.3265 54.0623 94.3074 54.0814C93.9287 54.46 94.0305 54.441 93.7664 54.7051C93.636 54.8355 93.4355 54.9533 93.3082 55.0742C93.1778 55.2046 92.9932 55.4846 92.8691 55.6087C92.7355 55.736 92.5446 55.806 92.4205 55.9301C92.29 56.0606 92.22 56.2515 92.0959 56.3756C91.9909 56.4806 91.8541 56.5538 91.7395 56.6365C91.6441 56.7065 91.6854 56.7352 91.7141 56.7638C91.7777 56.8274 91.8986 56.9229 92.0132 57.0056C92.1945 57.1361 92.36 57.3016 92.5796 57.5402C92.7991 57.7789 93.165 58.1384 93.4546 58.3771C95.5738 60.1335 95.7552 60.3849 96.7098 61.6068C96.7098 61.6068 96.8243 61.7531 96.8752 61.8295C96.9962 62.0204 97.1839 62.2527 97.2793 62.2145C97.3653 62.1795 97.6198 61.9568 97.7185 61.8009C97.8139 61.6481 97.8266 61.5909 97.9571 61.4668Z" fill="#FAFDFF"/>
<path d="M94.4445 54.8928C94.5209 54.8165 94.5941 54.7369 94.6609 54.6574C94.6864 54.6319 94.6832 54.5969 94.6545 54.5683C94.6291 54.5428 94.5877 54.546 94.5654 54.5746C94.4986 54.6478 94.4286 54.7242 94.3491 54.8101L94.2822 54.8769C94.2568 54.9024 94.26 54.9438 94.2822 54.966C94.3077 54.9915 94.3459 54.9915 94.3713 54.966L94.4445 54.8928Z" fill="#C8CED3"/>
<path d="M93.1271 56.0956C93.1049 56.1179 93.0635 56.1211 93.038 56.0956L93.0348 56.0925C93.0094 56.067 93.0094 56.0288 93.0348 56.0034L93.1367 55.9015C93.1523 55.8859 93.168 55.8706 93.1835 55.8555C93.204 55.8357 93.2243 55.8163 93.2442 55.7974C93.2767 55.7664 93.308 55.7366 93.3371 55.7074C93.3626 55.6883 93.3976 55.6852 93.4262 55.7138C93.4485 55.7424 93.4485 55.7806 93.423 55.8061C93.3594 55.8634 93.2958 55.927 93.2258 55.997L93.1271 56.0956Z" fill="#C8CED3"/>
<path d="M92.7549 56.3215C92.774 56.2961 92.8185 56.2897 92.844 56.3152C92.8663 56.3374 92.8758 56.3788 92.8504 56.4043L92.838 56.4194C92.7559 56.5196 92.6714 56.6229 92.5926 56.732C92.5703 56.7606 92.5322 56.767 92.5035 56.7447L92.4971 56.7384C92.4749 56.7161 92.4717 56.6811 92.4908 56.6556C92.5686 56.5489 92.6518 56.4474 92.7306 56.3512L92.7549 56.3215Z" fill="#C8CED3"/>
<path d="M99.2302 59.1758C99.2079 59.198 99.2143 59.2362 99.2365 59.2585L99.2429 59.2649C99.2715 59.2871 99.3097 59.2808 99.332 59.2521C99.3463 59.2327 99.3595 59.2154 99.372 59.1989C99.3903 59.1748 99.4073 59.1525 99.4243 59.128C99.3925 59.1026 99.3606 59.0771 99.3225 59.0517C99.3055 59.0762 99.2885 59.0985 99.2702 59.1225C99.2576 59.139 99.2444 59.1563 99.2302 59.1758Z" fill="#C8CED3"/>
<path d="M98.5588 60.2481C98.4856 60.334 98.4061 60.4136 98.3297 60.49L98.3265 60.4931L98.2629 60.5568C98.2375 60.5822 98.1993 60.5822 98.1738 60.5568C98.1484 60.5313 98.1484 60.4931 98.1738 60.4677L98.2375 60.404C98.3138 60.3277 98.3902 60.2513 98.4634 60.1654C98.4856 60.1368 98.527 60.1336 98.5525 60.159C98.5779 60.1781 98.5843 60.2227 98.5588 60.2481Z" fill="#C8CED3"/>
<path d="M97.6456 61.1231C97.6201 61.1486 97.5819 61.1486 97.5565 61.1231C97.531 61.0977 97.531 61.0595 97.5565 61.0341C97.636 60.9609 97.7092 60.894 97.7792 60.8304L97.8715 60.7509C97.897 60.7254 97.9351 60.7318 97.9606 60.7572C97.9797 60.7827 97.9797 60.8209 97.9542 60.8463L97.862 60.9259C97.792 60.9831 97.7188 61.05 97.6456 61.1231Z" fill="#C8CED3"/>
<path d="M97.0919 61.7341C97.0664 61.7596 97.025 61.7691 96.9996 61.7436L97.0028 61.7532L96.9964 61.7468C96.9741 61.7246 96.9709 61.6832 96.9932 61.6609C97.0854 61.5496 97.1776 61.4447 97.2698 61.3398C97.2921 61.3111 97.3337 61.3077 97.3591 61.3332C97.3814 61.3554 97.3878 61.3936 97.3623 61.4191C97.2701 61.5177 97.181 61.6259 97.0919 61.7341Z" fill="#C8CED3"/>
<path d="M98.737 59.9299C98.7656 59.9522 98.8038 59.9458 98.8261 59.9172C98.9152 59.7963 99.0011 59.6849 99.0806 59.5863C99.1029 59.5576 99.0997 59.5163 99.0679 59.4972C99.0424 59.4717 99.0011 59.4813 98.9788 59.5099C98.8992 59.6149 98.8165 59.7231 98.7242 59.8408C98.702 59.8631 98.7083 59.9013 98.7306 59.9236L98.737 59.9299Z" fill="#C8CED3"/>
<path d="M92.3571 57.0693C92.3762 57.0375 92.3699 56.9993 92.3381 56.9802C92.3062 56.9611 92.268 56.9675 92.249 56.9993C92.2203 57.0407 92.1949 57.0852 92.1694 57.1297C92.1834 57.1437 92.1988 57.1577 92.2147 57.172C92.2314 57.1871 92.2485 57.2025 92.2649 57.2189C92.2935 57.1711 92.3253 57.1202 92.354 57.0725L92.3571 57.0693Z" fill="#C8CED3"/>
<path d="M94.069 55.1728C94.0913 55.1951 94.0881 55.2364 94.0627 55.2619C93.9513 55.3605 93.8495 55.4496 93.7508 55.5292C93.7285 55.5515 93.684 55.5515 93.6617 55.5292L93.6585 55.526C93.6363 55.4974 93.6363 55.4656 93.6617 55.4401L93.6713 55.4305C93.7699 55.351 93.8686 55.2651 93.9799 55.1664C94.0022 55.1442 94.0436 55.1474 94.069 55.1728Z" fill="#C8CED3"/>
<path d="M85.2486 61.1258C85.4228 61.1866 85.5691 61.3139 85.7376 61.3774C85.9118 61.4382 86.1084 61.421 86.2769 61.4845C86.4511 61.5453 86.5942 61.6953 86.7584 61.7573C86.9326 61.8181 87.1394 61.7854 87.3051 61.8432C87.4836 61.9054 87.5846 62.0121 87.7547 62.0572C87.8327 62.0796 87.8931 61.8243 87.9425 61.6556C87.9962 61.4742 88.0652 61.0169 88.1185 60.8639C88.1763 60.6982 88.4226 59.4592 88.8836 58.1378C89.4764 56.4382 89.8662 55.7306 89.9817 55.5088C90.0607 55.3505 90.2638 54.9733 90.3464 54.7639C90.3775 54.6746 90.3382 54.6371 90.3127 54.6282C89.8071 54.4518 89.8685 54.5352 89.5159 54.4122C89.3417 54.3514 89.1485 54.2221 88.9843 54.16C88.8101 54.0993 88.4777 54.0548 88.312 53.997C88.1392 53.932 87.9932 53.7905 87.8275 53.7327C87.6533 53.6719 87.4509 53.6919 87.2852 53.6341C87.145 53.5852 87.0196 53.4938 86.8953 53.4266C86.7907 53.3711 86.7829 53.4208 86.7696 53.459C86.7399 53.544 86.7066 53.6944 86.6819 53.8335C86.6432 54.0536 86.5662 54.2745 86.4467 54.576C86.3272 54.8775 86.1625 55.3633 86.0735 55.7279C85.4131 58.3999 85.2656 58.6726 84.5803 60.0634C84.5803 60.0634 84.4982 60.2302 84.4516 60.3093C84.3322 60.5012 84.2047 60.7712 84.2806 60.8406C84.3494 60.9027 84.6607 61.0352 84.844 61.0562C85.023 61.0758 85.0802 61.0623 85.2486 61.1258Z" fill="#FAFDFF"/>
<path d="M89.6418 55.1043C89.7437 55.1399 89.8472 55.1712 89.9479 55.1968C89.9819 55.2086 90.012 55.1905 90.0253 55.1523C90.0372 55.1183 90.0164 55.0824 89.9809 55.0748C89.8859 55.0465 89.7867 55.0166 89.6748 54.9824L89.5855 54.9512C89.5515 54.9394 89.5157 54.9602 89.5053 54.99C89.4934 55.024 89.51 55.0583 89.544 55.0702L89.6418 55.1043Z" fill="#C8CED3"/>
<path d="M87.9858 54.4408C87.9561 54.4305 87.9352 54.3946 87.9471 54.3606L87.9486 54.3564C87.9604 54.3224 87.9948 54.3058 88.0288 54.3176L88.1648 54.3651C88.1857 54.3723 88.2063 54.3798 88.2266 54.3872C88.2534 54.3971 88.2796 54.4069 88.3053 54.4166C88.3473 54.4324 88.3878 54.4476 88.4267 54.4612C88.455 54.4758 88.4731 54.506 88.4597 54.5442C88.4436 54.5767 88.4092 54.5933 88.3753 54.5815C88.296 54.549 88.211 54.5194 88.1175 54.4868L87.9858 54.4408Z" fill="#C8CED3"/>
<path d="M87.6206 54.2038C87.6518 54.21 87.6769 54.2473 87.665 54.2813C87.6547 54.3111 87.6216 54.3376 87.5876 54.3258L87.5686 54.3212C87.4426 54.2909 87.3128 54.2597 87.1804 54.2362C87.1449 54.2286 87.1226 54.1969 87.1302 54.1615L87.1331 54.153C87.1435 54.1232 87.1736 54.1051 87.2049 54.1113C87.3348 54.135 87.4623 54.1657 87.5833 54.1949L87.6206 54.2038Z" fill="#C8CED3"/>
<path d="M87.8655 61.276C87.8357 61.2657 87.8041 61.288 87.7937 61.3177L87.7908 61.3262C87.7832 61.3617 87.8055 61.3933 87.841 61.4009C87.8647 61.4053 87.886 61.4097 87.9063 61.4138C87.9359 61.4199 87.9634 61.4255 87.9928 61.4301C88.0019 61.3904 88.011 61.3506 88.0173 61.3052C87.9879 61.3006 87.9604 61.295 87.9308 61.2889C87.9105 61.2848 87.8891 61.2804 87.8655 61.276Z" fill="#C8CED3"/>
<path d="M86.6079 61.1377C86.4987 61.1091 86.3925 61.0721 86.2905 61.0365L86.2862 61.035L86.2013 61.0054C86.1673 60.9935 86.1507 60.9592 86.1625 60.9252C86.1744 60.8912 86.2088 60.8746 86.2428 60.8864L86.3277 60.9161C86.4297 60.9516 86.5317 60.9872 86.6409 61.0158C86.6763 61.0234 86.6972 61.0592 86.6853 61.0932C86.6792 61.1245 86.6419 61.1496 86.6079 61.1377Z" fill="#C8CED3"/>
<path d="M85.4228 60.6957C85.3888 60.6839 85.3722 60.6495 85.3841 60.6155C85.3959 60.5815 85.4303 60.5649 85.4643 60.5767C85.5648 60.6166 85.6568 60.6534 85.7445 60.6888L85.8563 60.7373C85.8903 60.7492 85.9012 60.7863 85.8893 60.8203C85.8747 60.8486 85.8403 60.8652 85.8063 60.8533L85.6946 60.8048C85.6125 60.7667 85.5205 60.7298 85.4228 60.6957Z" fill="#C8CED3"/>
<path d="M84.6319 60.4627C84.5979 60.4508 84.5713 60.4177 84.5832 60.3837L84.576 60.3908L84.5789 60.3823C84.5893 60.3525 84.6252 60.3317 84.6549 60.342C84.7952 60.3767 84.9298 60.4141 85.0644 60.4515C85.0998 60.4591 85.121 60.4951 85.1092 60.5291C85.0988 60.5588 85.0672 60.5811 85.0332 60.5693C84.9042 60.5291 84.7681 60.4959 84.6319 60.4627Z" fill="#C8CED3"/>
<path d="M86.9719 61.1598C86.9643 61.1952 86.9866 61.2269 87.0221 61.2345C87.1697 61.2621 87.3073 61.2911 87.4308 61.3198C87.4662 61.3274 87.5021 61.3066 87.5055 61.2696C87.5173 61.2356 87.4907 61.2025 87.4553 61.1949C87.3261 61.1689 87.1927 61.1415 87.0466 61.1096C87.0168 61.0992 86.9852 61.1215 86.9748 61.1513L86.9719 61.1598Z" fill="#C8CED3"/>
<path d="M86.7742 54.1708C86.8112 54.1741 86.8428 54.1518 86.8462 54.1148C86.8495 54.0779 86.8272 54.0463 86.7902 54.0429C86.7406 54.0351 86.6894 54.0315 86.6382 54.028C86.6317 54.0466 86.6258 54.0666 86.6198 54.0871C86.6135 54.1087 86.607 54.1309 86.5994 54.1527C86.6549 54.1577 86.7145 54.1643 86.77 54.1693L86.7742 54.1708Z" fill="#C8CED3"/>
<path d="M89.2264 54.8878C89.216 54.9176 89.1774 54.9327 89.1434 54.9209C89.0061 54.8634 88.8816 54.8105 88.7671 54.7562C88.7374 54.7459 88.718 54.7057 88.7284 54.676L88.7298 54.6718C88.746 54.6392 88.7746 54.6254 88.8086 54.6373L88.8214 54.6417C88.9359 54.696 89.0561 54.7474 89.1934 54.8048C89.2231 54.8152 89.2382 54.8539 89.2264 54.8878Z" fill="#C8CED3"/>
<path d="M88.8487 67.4258C89.0229 67.4866 89.1692 67.6139 89.3377 67.6774C89.5119 67.7382 89.7085 67.721 89.877 67.7845C90.0512 67.8453 90.1943 67.9953 90.3585 68.0573C90.5327 68.1181 90.7395 68.0854 90.9052 68.1432C91.0837 68.2054 91.1847 68.3121 91.3548 68.3572C91.4328 68.3796 91.4932 68.1243 91.5425 67.9556C91.5963 67.7742 91.6653 67.3169 91.7186 67.1639C91.7764 66.9982 92.0227 65.7592 92.4837 64.4378C93.0765 62.7382 93.4663 62.0306 93.5818 61.8088C93.6608 61.6505 93.8639 61.2733 93.9465 61.0638C93.9776 60.9746 93.9383 60.9371 93.9128 60.9282C93.4072 60.7518 93.4686 60.8352 93.116 60.7122C92.9418 60.6514 92.7486 60.5221 92.5844 60.46C92.4102 60.3993 92.0778 60.3548 91.912 60.297C91.7393 60.232 91.5933 60.0905 91.4276 60.0327C91.2534 59.9719 91.051 59.9919 90.8853 59.9341C90.7451 59.8852 90.6197 59.7938 90.4954 59.7266C90.3908 59.6711 90.383 59.7208 90.3697 59.759C90.34 59.844 90.3066 59.9944 90.2819 60.1335C90.2433 60.3536 90.1662 60.5745 90.0468 60.876C89.9273 61.1775 89.7626 61.6633 89.6736 62.0278C89.0132 64.6999 88.8657 64.9725 88.1803 66.3634C88.1803 66.3634 88.0983 66.5302 88.0517 66.6093C87.9323 66.8012 87.8048 67.0712 87.8807 67.1406C87.9495 67.2027 88.2608 67.3351 88.4441 67.3562C88.6231 67.3757 88.6803 67.3623 88.8487 67.4258Z" fill="#FAFDFF"/>
<path d="M93.2419 61.4043C93.3438 61.4398 93.4473 61.4712 93.548 61.4968C93.582 61.5086 93.6121 61.4905 93.6254 61.4523C93.6373 61.4183 93.6164 61.3824 93.581 61.3748C93.486 61.3465 93.3868 61.3166 93.2749 61.2823L93.1856 61.2512C93.1516 61.2394 93.1158 61.2602 93.1054 61.29C93.0935 61.3239 93.1101 61.3583 93.1441 61.3702L93.2419 61.4043Z" fill="#C8CED3"/>
<path d="M91.5859 60.7408C91.5562 60.7305 91.5353 60.6946 91.5472 60.6606L91.5487 60.6564C91.5605 60.6224 91.5949 60.6058 91.6289 60.6176L91.7649 60.665C91.7858 60.6723 91.8064 60.6798 91.8267 60.6872C91.8535 60.697 91.8797 60.7069 91.9054 60.7166C91.9474 60.7324 91.9879 60.7476 92.0268 60.7612C92.0551 60.7758 92.0732 60.8059 92.0598 60.8442C92.0437 60.8767 92.0093 60.8933 91.9753 60.8814C91.8961 60.849 91.8111 60.8194 91.7176 60.7868L91.5859 60.7408Z" fill="#C8CED3"/>
<path d="M91.2207 60.5038C91.2519 60.51 91.277 60.5473 91.2651 60.5813C91.2548 60.611 91.2217 60.6376 91.1877 60.6258L91.1687 60.6212C91.0427 60.5909 90.9129 60.5597 90.7805 60.5362C90.745 60.5285 90.7227 60.4969 90.7303 60.4615L90.7332 60.453C90.7436 60.4232 90.7737 60.4051 90.805 60.4113C90.9349 60.435 91.0624 60.4657 91.1834 60.4949L91.2207 60.5038Z" fill="#C8CED3"/>
<path d="M91.4656 67.576C91.4358 67.5657 91.4042 67.588 91.3938 67.6177L91.3909 67.6262C91.3833 67.6617 91.4056 67.6933 91.4411 67.7009C91.4648 67.7053 91.4861 67.7097 91.5064 67.7138C91.536 67.7199 91.5635 67.7254 91.5929 67.7301C91.602 67.6904 91.6111 67.6506 91.6174 67.6052C91.5879 67.6005 91.5605 67.5949 91.5309 67.5889C91.5106 67.5848 91.4892 67.5804 91.4656 67.576Z" fill="#C8CED3"/>
<path d="M90.208 67.4377C90.0988 67.4091 89.9926 67.3721 89.8906 67.3365L89.8863 67.335L89.8014 67.3054C89.7674 67.2935 89.7508 67.2591 89.7626 67.2252C89.7745 67.1912 89.8089 67.1746 89.8429 67.1864L89.9278 67.2161C90.0298 67.2516 90.1318 67.2872 90.241 67.3157C90.2764 67.3234 90.2973 67.3592 90.2854 67.3932C90.2793 67.4244 90.242 67.4495 90.208 67.4377Z" fill="#C8CED3"/>
<path d="M89.0229 66.9957C88.9889 66.9838 88.9723 66.9495 88.9842 66.9155C88.996 66.8815 89.0304 66.8649 89.0644 66.8767C89.1649 66.9165 89.2569 66.9534 89.3446 66.9888L89.4564 67.0373C89.4904 67.0492 89.5013 67.0863 89.4894 67.1203C89.4748 67.1486 89.4404 67.1652 89.4064 67.1533L89.2947 67.1048C89.2126 67.0666 89.1206 67.0298 89.0229 66.9957Z" fill="#C8CED3"/>
<path d="M88.232 66.7627C88.198 66.7508 88.1714 66.7177 88.1833 66.6837L88.1761 66.6907L88.179 66.6822C88.1894 66.6525 88.2253 66.6316 88.255 66.642C88.3953 66.6767 88.5299 66.7141 88.6645 66.7515C88.6999 66.7591 88.7211 66.7951 88.7093 66.8291C88.6989 66.8588 88.6673 66.8811 88.6333 66.8693C88.5043 66.8291 88.3682 66.7959 88.232 66.7627Z" fill="#C8CED3"/>
<path d="M90.572 67.4598C90.5644 67.4952 90.5867 67.5268 90.6222 67.5345C90.7698 67.5621 90.9074 67.5911 91.0309 67.6198C91.0663 67.6274 91.1022 67.6066 91.1056 67.5696C91.1174 67.5356 91.0908 67.5025 91.0554 67.4949C90.9262 67.4689 90.7928 67.4415 90.6467 67.4096C90.6169 67.3992 90.5853 67.4215 90.5749 67.4513L90.572 67.4598Z" fill="#C8CED3"/>
<path d="M90.3743 60.4708C90.4113 60.4741 90.4429 60.4518 90.4463 60.4148C90.4496 60.3779 90.4273 60.3463 90.3903 60.3429C90.3407 60.3351 90.2895 60.3315 90.2383 60.328C90.2318 60.3466 90.2259 60.3666 90.2199 60.3871C90.2136 60.4087 90.2071 60.4309 90.1995 60.4527C90.255 60.4577 90.3146 60.4642 90.3701 60.4693L90.3743 60.4708Z" fill="#C8CED3"/>
<path d="M92.8265 61.1878C92.8161 61.2176 92.7775 61.2327 92.7435 61.2208C92.6062 61.1634 92.4817 61.1105 92.3672 61.0562C92.3375 61.0459 92.3181 61.0057 92.3285 60.976L92.3299 60.9717C92.3461 60.9392 92.3747 60.9254 92.4087 60.9373L92.4214 60.9417C92.536 60.996 92.6562 61.0474 92.7935 61.1048C92.8232 61.1152 92.8383 61.1538 92.8265 61.1878Z" fill="#C8CED3"/>
<path d="M84.1482 4.74642L28.5449 20.9445L34.5361 37.9182L86.3082 13.9929L84.1482 4.74642Z" fill="#00BAB0"/>
<path d="M76.7298 13.3624L46.9503 25.6945C46.0283 26.0461 44.9978 25.569 44.6693 24.6385C44.3409 23.708 44.8436 22.6897 45.782 22.3846L76.1157 11.6226C76.5918 11.4678 77.1045 11.721 77.2712 12.1931C77.4378 12.6652 77.1976 13.184 76.7298 13.3624Z" fill="#082946"/>
<path d="M31.8906 75.0788C31.0909 75.2498 30.3129 74.7104 30.1927 73.9015L26.995 52.3904C26.9005 51.7548 27.2456 51.1351 27.8357 50.8808L28.4985 50.5951C28.7698 50.4782 29.0807 50.6362 29.1461 50.9244L34.3948 74.0541C34.4531 74.3108 34.2903 74.5655 34.033 74.6205L31.8906 75.0788Z" fill="#5DABF0"/>
<path d="M25.4235 37.8265L36.9214 89.4306L54.3081 84.7719L38.4635 34.3324L25.4235 37.8265Z" fill="#00BAB0"/>
<path d="M35.647 46.3214L43.6666 73.08C43.9495 74.0239 43.3965 75.015 42.4447 75.2701C41.4928 75.5251 40.5184 74.9433 40.2914 73.9844L33.8573 46.801C33.7418 46.3132 34.0351 45.822 34.5193 45.6922C35.0035 45.5625 35.5031 45.8412 35.647 46.3214Z" fill="#082946"/>
<path d="M38.7426 26.6186C40.4427 31.2894 38.0344 36.4539 33.3636 38.154C28.6928 39.854 23.5282 37.4457 21.8282 32.7749C20.1281 28.1041 22.5364 22.9395 27.2072 21.2395C31.878 19.5395 37.0426 21.9478 38.7426 26.6186Z" fill="#082946"/>
<path fill-rule="evenodd" clip-rule="evenodd" d="M40.4345 26.0029C42.4746 31.6079 39.5846 37.8054 33.9797 39.8454C28.3747 41.8855 22.1772 38.9955 20.1372 33.3906C18.0971 27.7856 20.9871 21.5881 26.592 19.5481C32.197 17.508 38.3945 20.398 40.4345 26.0029ZM33.364 38.154C38.0348 36.4539 40.4431 31.2894 38.7431 26.6186C37.0431 21.9478 31.8785 19.5395 27.2077 21.2395C22.5369 22.9395 20.1286 28.1041 21.8286 32.7749C23.5287 37.4457 28.6932 39.854 33.364 38.154Z" fill="#377EBD"/>
<path d="M96.1499 10.8L93.8867 36.45L87.6131 36.45L85.3499 10.8L96.1499 10.8Z" fill="#00BAB0"/>
<path d="M90.7538 19.35C91.2464 19.35 91.6434 19.7537 91.6351 20.2462L91.4342 32.2286C91.4284 32.5734 91.1472 32.85 90.8023 32.85C90.4594 32.85 90.1791 32.5765 90.1706 32.2337L89.8726 20.2533C89.8603 19.7581 90.2584 19.35 90.7538 19.35Z" fill="#082946"/>
<path fill-rule="evenodd" clip-rule="evenodd" d="M86.6999 44.1L80.3999 46.8L84.8999 57.6L86.2499 57.15L83.3249 48.15L88.7249 46.35L86.6999 44.1ZM94.7999 44.1L101.1 46.8L96.5999 57.6L95.2499 57.15L98.1749 48.15L92.7749 46.35L94.7999 44.1Z" fill="#5DABF0"/>
<path d="M90.75 38.25C93.2353 38.25 95.25 40.2647 95.25 42.75C95.25 45.2353 93.2353 47.25 90.75 47.25C88.2647 47.25 86.25 45.2353 86.25 42.75C86.25 40.2647 88.2647 38.25 90.75 38.25Z" fill="#082946"/>
<path d="M86.7002 36.9C86.7002 36.6515 86.9017 36.45 87.1502 36.45H94.3502C94.5987 36.45 94.8002 36.6515 94.8002 36.9V39.15H86.7002V36.9Z" fill="#5DABF0"/>
<path d="M84.4502 39.6C84.4502 39.3515 84.6517 39.15 84.9002 39.15H96.6002C96.8487 39.15 97.0502 39.3515 97.0502 39.6V42.3C97.0502 42.5486 96.8487 42.75 96.6002 42.75H84.9002C84.6517 42.75 84.4502 42.5486 84.4502 42.3V39.6Z" fill="#377EBD"/>
<path d="M97.5 8.09998C97.5 11.8279 94.4779 14.85 90.75 14.85C87.0221 14.85 84 11.8279 84 8.09998C84 4.37205 87.0221 1.34998 90.75 1.34998C94.4779 1.34998 97.5 4.37205 97.5 8.09998Z" fill="#082946"/>
<path fill-rule="evenodd" clip-rule="evenodd" d="M98.8499 8.1C98.8499 12.5735 95.2234 16.2 90.7499 16.2C86.2764 16.2 82.6499 12.5735 82.6499 8.1C82.6499 3.62649 86.2764 0 90.7499 0C95.2234 0 98.8499 3.62649 98.8499 8.1ZM90.7499 14.85C94.4778 14.85 97.4999 11.8279 97.4999 8.1C97.4999 4.37208 94.4778 1.35 90.7499 1.35C87.022 1.35 83.9999 4.37208 83.9999 8.1C83.9999 11.8279 87.022 14.85 90.7499 14.85Z" fill="#377EBD"/>
<path d="M5.2501 83.25V88.698C5.2501 89.1278 5.65367 89.4762 6.15151 89.4762H35.9444C36.4593 89.4762 36.8695 89.8479 36.8448 90.2919L33.6113 148.361C33.5461 149.532 32.5235 150.639 31.557 151.462L2.50545 176.201C1.64461 176.934 2.24582 178.2 3.45493 178.2H40.0073C41.2874 178.2 42.4716 177.614 43.1186 176.66L59.8851 151.945C60.3238 151.298 60.5758 150.569 60.6197 149.821L64.1152 90.2152C64.1395 89.8011 64.5353 89.4762 65.0155 89.4762H73.6058C74.1104 89.4762 74.5168 89.8339 74.5071 90.2695L73.2007 148.923C73.1822 149.754 72.9713 150.573 72.5805 151.332L59.9894 174.917C59.1946 176.461 60.5036 178.2 62.4605 178.2H90.7501H119.04C120.997 178.2 122.306 176.461 121.511 174.917L108.92 151.332C108.529 150.573 108.318 149.754 108.3 148.923L106.993 90.2695C106.983 89.8339 107.39 89.4762 107.894 89.4762H116.485C116.965 89.4762 117.361 89.8011 117.385 90.2152L120.88 149.821C120.924 150.569 121.176 151.298 121.615 151.945L138.382 176.66C139.029 177.614 140.213 178.2 141.493 178.2H178.045C179.254 178.2 179.856 176.934 178.995 176.201L149.943 151.462C148.977 150.639 148.404 149.532 148.339 148.361L144.655 90.2919C144.631 89.8479 145.041 89.4762 145.556 89.4762H175.35C175.848 89.4762 176.251 89.1278 176.251 88.698V83.25H90.7501H5.2501Z" fill="#5DABF0"/>
<path d="M74.7175 148.815L76.3291 85.2969C76.342 84.7911 75.9354 84.3741 75.4294 84.3741H63.7064C63.2286 84.3741 62.8342 84.7473 62.8077 85.2243L59.3014 148.526C59.247 149.509 58.9252 150.458 58.3708 151.271L41.9957 175.279C41.325 176.262 40.2118 176.85 39.0216 176.85H5.43842C4.60222 176.85 4.21802 175.809 4.85369 175.266L32.6309 151.526C33.7503 150.569 34.4304 149.197 34.5139 147.727L38.0551 85.3251C38.0844 84.8088 37.6736 84.3741 37.1565 84.3741H5.25012V81.9C5.25012 80.9059 6.05601 80.1 7.05012 80.1H90.7501H174.45C175.444 80.1 176.25 80.9059 176.25 81.9V84.3741H144.344C143.827 84.3741 143.416 84.8088 143.445 85.3251L146.986 147.727C147.07 149.197 147.75 150.569 148.869 151.526L176.647 175.266C177.282 175.809 176.898 176.85 176.062 176.85H142.479C141.288 176.85 140.175 176.262 139.505 175.279L123.129 151.271C122.575 150.458 122.253 149.509 122.199 148.526L118.693 85.2243C118.666 84.7473 118.272 84.3741 117.794 84.3741H106.071C105.565 84.3741 105.158 84.7911 105.171 85.2969L106.783 148.815C106.803 149.614 107 150.398 107.36 151.111L119.031 174.239C119.635 175.436 118.765 176.85 117.424 176.85H90.7501H64.0763C62.7353 176.85 61.8652 175.436 62.4693 174.239L74.1402 151.111C74.5001 150.398 74.6972 149.614 74.7175 148.815Z" fill="#082946"/>
<path d="M108.75 157.32H72.75V166.68C72.75 170.557 80.8089 173.7 90.75 173.7C100.691 173.7 108.75 170.557 108.75 166.68V157.32Z" fill="#EDF1F5"/>
<path d="M108.75 162.602C108.527 163.054 108.177 163.498 107.7 163.93C106.809 164.737 105.5 165.478 103.849 166.105C100.549 167.36 95.9399 168.143 90.75 168.143C85.5601 168.143 80.9514 167.36 77.6509 166.105C75.9997 165.478 74.6908 164.737 73.8 163.93C73.3231 163.498 72.9727 163.054 72.75 162.602V163.668C72.9426 163.908 73.1641 164.141 73.4117 164.365C74.375 165.238 75.7558 166.01 77.4459 166.653C80.8282 167.939 85.5099 168.728 90.75 168.728C95.9901 168.728 100.672 167.939 104.054 166.653C105.744 166.01 107.125 165.238 108.088 164.365C108.336 164.141 108.557 163.908 108.75 163.668V162.602Z" fill="#C8CED3"/>
<path d="M86.2498 164.119C82.9311 163.786 79.9829 163.093 77.6948 162.153C77.6948 162.738 78.0522 163.266 78.6053 163.455C80.5543 164.121 82.8449 164.625 85.3506 164.925C85.8317 164.983 86.2498 164.604 86.2498 164.119Z" fill="#C8CED3"/>
<path d="M103.805 162.153C103.805 162.619 104.274 162.939 104.7 162.749C106.001 162.166 107.11 161.485 107.946 160.714C108.246 160.437 108.517 160.061 108.75 159.75V157.32C108.75 159.193 106.87 160.894 103.805 162.153Z" fill="#C8CED3"/>
<ellipse cx="90.75" cy="157.32" rx="18" ry="7.0201" fill="#FAFDFF"/>
<path d="M61.5 82.5241H39V88.1563C39 90.4892 44.0368 92.3804 50.25 92.3804C56.4632 92.3804 61.5 90.4892 61.5 88.1563V82.5241Z" fill="#EDF1F5"/>
<path d="M61.5 85.7026C61.3608 85.9742 61.1418 86.2417 60.8438 86.5016C60.287 86.9873 59.469 87.4328 58.4369 87.8105C56.3741 88.5656 53.4937 89.0364 50.25 89.0364C47.0063 89.0364 44.1259 88.5656 42.0631 87.8105C41.031 87.4328 40.213 86.9873 39.6562 86.5016C39.3582 86.2417 39.1392 85.9742 39 85.7026V86.3441C39.1204 86.4885 39.2588 86.6284 39.4136 86.7634C40.0157 87.2885 40.8786 87.7532 41.9349 88.1399C44.0489 88.9136 46.9749 89.3884 50.25 89.3884C53.5251 89.3884 56.4511 88.9136 58.5651 88.1399C59.6214 87.7532 60.4843 87.2885 61.0864 86.7634C61.2412 86.6284 61.3796 86.4885 61.5 86.3441V85.7026Z" fill="#C8CED3"/>
<path d="M47.4372 86.6151C45.363 86.4147 43.5204 85.9977 42.0903 85.4323C42.0903 85.7831 42.3072 86.0992 42.6404 86.2093C43.8679 86.6147 45.3135 86.9215 46.8958 87.1028C47.1858 87.136 47.4372 86.907 47.4372 86.6151Z" fill="#C8CED3"/>
<path d="M58.4097 85.4323C58.4097 85.7144 58.6917 85.9096 58.951 85.7982C59.772 85.4458 60.4712 85.0337 60.9976 84.5665C61.1853 84.3998 61.3547 84.1734 61.5003 83.9862V82.5241C61.5003 83.651 60.3251 84.6749 58.4097 85.4323Z" fill="#C8CED3"/>
<ellipse cx="50.25" cy="82.5241" rx="11.25" ry="4.22414" fill="#FAFDFF"/>
<path d="M121.35 106.47H143.85V112.23C143.85 114.616 138.813 116.55 132.6 116.55C126.387 116.55 121.35 114.616 121.35 112.23V106.47Z" fill="#EDF1F5"/>
<path d="M121.35 109.721C121.489 109.998 121.708 110.272 122.006 110.538C122.563 111.034 123.381 111.49 124.413 111.876C126.476 112.649 129.356 113.13 132.6 113.13C135.844 113.13 138.724 112.649 140.787 111.876C141.819 111.49 142.637 111.034 143.194 110.538C143.492 110.272 143.711 109.998 143.85 109.721V110.377C143.73 110.524 143.591 110.667 143.437 110.805C142.834 111.342 141.971 111.818 140.915 112.213C138.801 113.005 135.875 113.49 132.6 113.49C129.325 113.49 126.399 113.005 124.285 112.213C123.229 111.818 122.366 111.342 121.764 110.805C121.609 110.667 121.471 110.524 121.35 110.377V109.721Z" fill="#C8CED3"/>
<path d="M135.413 110.654C137.487 110.449 139.33 110.022 140.76 109.444C140.76 109.804 140.539 110.128 140.199 110.243C138.977 110.654 137.539 110.966 135.966 111.151C135.67 111.186 135.413 110.952 135.413 110.654Z" fill="#C8CED3"/>
<path d="M124.441 109.444C124.441 109.732 124.152 109.93 123.889 109.814C123.073 109.454 122.377 109.035 121.853 108.559C121.665 108.388 121.496 108.157 121.35 107.965V106.47C121.35 107.623 122.526 108.67 124.441 109.444Z" fill="#C8CED3"/>
<ellipse rx="11.25" ry="4.32001" transform="matrix(-1 0 0 1 132.6 106.47)" fill="#FAFDFF"/>
<path d="M20.9999 152.1H48.8999V159.3C48.8999 162.282 42.6543 164.7 34.9499 164.7C27.2455 164.7 20.9999 162.282 20.9999 159.3V152.1Z" fill="#EDF1F5"/>
<path d="M20.9999 156.163C21.1725 156.51 21.4441 156.852 21.8136 157.185C22.5041 157.805 23.5184 158.375 24.7981 158.858C27.356 159.823 30.9277 160.425 34.9499 160.425C38.9721 160.425 42.5438 159.823 45.1017 158.858C46.3814 158.375 47.3957 157.805 48.0862 157.185C48.4557 156.852 48.7273 156.51 48.8999 156.163V156.983C48.7507 157.168 48.5789 157.347 48.3871 157.519C47.6405 158.191 46.5704 158.785 45.2606 159.279C42.6393 160.268 39.011 160.875 34.9499 160.875C30.8888 160.875 27.2605 160.268 24.6392 159.279C23.3294 158.785 22.2593 158.191 21.5128 157.519C21.3209 157.347 21.1491 157.168 20.9999 156.983V156.163Z" fill="#C8CED3"/>
<path d="M38.4373 157.33C41.0092 157.074 43.2941 156.541 45.0674 155.818C45.0674 156.267 44.792 156.673 44.3664 156.817C42.8536 157.331 41.075 157.72 39.129 157.951C38.7588 157.995 38.4373 157.703 38.4373 157.33Z" fill="#C8CED3"/>
<path d="M24.832 155.818C24.832 156.177 24.4713 156.424 24.1432 156.278C23.1328 155.829 22.272 155.305 21.623 154.711C21.3902 154.498 21.1802 154.208 20.9996 153.969V152.1C20.9996 153.541 22.4569 154.85 24.832 155.818Z" fill="#C8CED3"/>
<ellipse rx="13.95" ry="5.40001" transform="matrix(-1 0 0 1 34.9499 152.1)" fill="#FAFDFF"/>
<path d="M142.95 76.185H121.35V81.765C121.35 84.0763 126.185 85.95 132.15 85.95C138.115 85.95 142.95 84.0763 142.95 81.765V76.185Z" fill="#EDF1F5"/>
<path d="M128.666 80.1475C129.759 80.2917 130.931 80.37 132.15 80.37C133.369 80.37 134.541 80.2917 135.634 80.1474C135.634 80.4483 135.411 80.7033 135.111 80.7358C134.168 80.8384 133.174 80.8931 132.15 80.8931C131.125 80.8931 130.132 80.8385 129.188 80.7359C128.889 80.7033 128.666 80.4484 128.666 80.1475Z" fill="#C8CED3"/>
<path d="M142.95 79.334C142.816 79.6031 142.606 79.868 142.32 80.1256C141.786 80.6067 141 81.0481 140.01 81.4223C138.029 82.1704 135.264 82.6369 132.15 82.6369C129.036 82.6369 126.271 82.1704 124.291 81.4223C123.3 81.0481 122.515 80.6067 121.98 80.1256C121.694 79.868 121.484 79.6031 121.35 79.334V79.9695C121.466 80.1126 121.599 80.2512 121.747 80.3849C122.325 80.9051 123.154 81.3656 124.168 81.7486C126.197 82.5152 129.006 82.9856 132.15 82.9856C135.294 82.9856 138.103 82.5152 140.133 81.7486C141.147 81.3656 141.975 80.9051 142.553 80.3849C142.702 80.2512 142.835 80.1126 142.95 79.9695V79.334Z" fill="#C8CED3"/>
<ellipse cx="132.15" cy="76.185" rx="10.8" ry="4.185" fill="#FAFDFF"/>
<path d="M142.5 76.05C142.5 78.0382 137.866 79.65 132.15 79.65C126.434 79.65 121.8 78.0382 121.8 76.05C121.8 74.0618 126.434 72.225 132.15 72.225C137.866 72.225 142.5 74.0618 142.5 76.05Z" fill="#C8CED3"/>
<path d="M104.25 109.665H77.25V116.685C77.25 119.593 83.2942 121.95 90.75 121.95C98.2058 121.95 104.25 119.593 104.25 116.685V109.665Z" fill="#EDF1F5"/>
<path d="M86.395 114.65C87.7613 114.832 89.2261 114.93 90.7499 114.93C92.2736 114.93 93.7384 114.832 95.1047 114.65C95.1047 115.029 94.824 115.35 94.4476 115.391C93.2692 115.52 92.029 115.588 90.7499 115.588C89.4708 115.588 88.2305 115.52 87.0521 115.391C86.6757 115.35 86.395 115.029 86.395 114.65Z" fill="#C8CED3"/>
<path d="M104.25 113.627C104.083 113.965 103.82 114.299 103.463 114.623C102.794 115.228 101.813 115.783 100.574 116.254C98.0989 117.195 94.6424 117.782 90.75 117.782C86.8576 117.782 83.4011 117.195 80.9257 116.254C79.6872 115.783 78.7056 115.228 78.0375 114.623C77.6798 114.299 77.417 113.965 77.25 113.627V114.426C77.3944 114.606 77.5606 114.781 77.7463 114.949C78.4688 115.603 79.5043 116.183 80.7719 116.664C83.3087 117.629 86.8199 118.221 90.75 118.221C94.6801 118.221 98.1913 117.629 100.728 116.664C101.996 116.183 103.031 115.603 103.754 114.949C103.939 114.781 104.106 114.606 104.25 114.426V113.627Z" fill="#C8CED3"/>
<ellipse cx="90.75" cy="109.665" rx="13.5" ry="5.26501" fill="#FAFDFF"/>
<path d="M59.25 119.97H36.75V125.73C36.75 128.116 41.7868 130.05 48 130.05C54.2132 130.05 59.25 128.116 59.25 125.73V119.97Z" fill="#EDF1F5"/>
<path d="M44.3706 124.06C45.5092 124.209 46.7298 124.29 47.9996 124.29C49.2694 124.29 50.4901 124.209 51.6287 124.06C51.6287 124.371 51.3981 124.634 51.0894 124.667C50.1049 124.773 49.0686 124.83 47.9996 124.83C46.9307 124.83 45.8943 124.773 44.9099 124.667C44.6011 124.634 44.3706 124.371 44.3706 124.06Z" fill="#C8CED3"/>
<path d="M59.25 123.22C59.1108 123.498 58.8918 123.772 58.5938 124.038C58.037 124.534 57.219 124.99 56.1869 125.376C54.1241 126.148 51.2437 126.63 48 126.63C44.7563 126.63 41.8759 126.148 39.8131 125.376C38.781 124.99 37.963 124.534 37.4062 124.038C37.1082 123.772 36.8892 123.498 36.75 123.22V123.876C36.8704 124.024 37.0088 124.167 37.1636 124.305C37.7657 124.842 38.6286 125.318 39.6849 125.713C41.7989 126.504 44.7249 126.99 48 126.99C51.2751 126.99 54.2011 126.504 56.3151 125.713C57.3714 125.318 58.2343 124.842 58.8364 124.305C58.9912 124.167 59.1296 124.024 59.25 123.876V123.22Z" fill="#C8CED3"/>
<ellipse cx="48" cy="119.97" rx="11.25" ry="4.32001" fill="#FAFDFF"/>
<path d="M153.3 142.2H125.4V149.4C125.4 152.382 131.646 154.8 139.35 154.8C147.054 154.8 153.3 152.382 153.3 149.4V142.2Z" fill="#EDF1F5"/>
<path d="M134.85 147.313C136.262 147.499 137.776 147.6 139.35 147.6C140.925 147.6 142.438 147.499 143.85 147.313C143.85 147.701 143.562 148.03 143.176 148.072C141.957 148.204 140.674 148.275 139.35 148.275C138.027 148.275 136.743 148.204 135.524 148.072C135.138 148.03 134.85 147.701 134.85 147.313Z" fill="#C8CED3"/>
<path d="M153.3 146.263C153.127 146.61 152.856 146.952 152.486 147.285C151.796 147.905 150.781 148.475 149.502 148.958C146.944 149.923 143.372 150.525 139.35 150.525C135.328 150.525 131.756 149.923 129.198 148.958C127.918 148.475 126.904 147.905 126.214 147.285C125.844 146.952 125.572 146.61 125.4 146.263V147.083C125.549 147.268 125.721 147.447 125.913 147.619C126.659 148.29 127.729 148.885 129.039 149.379C131.661 150.368 135.289 150.975 139.35 150.975C143.411 150.975 147.039 150.368 149.661 149.379C150.97 148.885 152.04 148.29 152.787 147.619C152.979 147.447 153.151 147.268 153.3 147.083V146.263Z" fill="#C8CED3"/>
<ellipse cx="139.35" cy="142.2" rx="13.95" ry="5.40001" fill="#FAFDFF"/>
<path d="M102.9 76.185H81.2998V81.765C81.2998 84.0763 86.1351 85.95 92.0998 85.95C98.0645 85.95 102.9 84.0763 102.9 81.765V76.185Z" fill="#EDF1F5"/>
<path d="M102.9 79.334C102.766 79.6031 102.556 79.868 102.27 80.1256C101.735 80.6067 100.95 81.0481 99.9593 81.4223C97.979 82.1704 95.2138 82.6369 92.0998 82.6369C88.9859 82.6369 86.2207 82.1704 84.2404 81.4223C83.2496 81.0481 82.4643 80.6067 81.9298 80.1256C81.6437 79.868 81.4334 79.6031 81.2998 79.334V79.9695C81.4153 80.1126 81.5483 80.2512 81.6968 80.3849C82.2748 80.9051 83.1033 81.3656 84.1174 81.7486C86.1467 82.5152 88.9557 82.9856 92.0998 82.9856C95.2439 82.9856 98.0529 82.5152 100.082 81.7486C101.096 81.3656 101.925 80.9051 102.503 80.3849C102.651 80.2512 102.784 80.1126 102.9 79.9695V79.334Z" fill="#C8CED3"/>
<path d="M94.8001 80.2381C96.7913 80.0395 98.5602 79.6264 99.9331 79.0662C99.9331 79.4145 99.7197 79.7291 99.3899 79.8411C98.219 80.2388 96.8423 80.5402 95.3362 80.7193C95.0493 80.7534 94.8001 80.527 94.8001 80.2381Z" fill="#C8CED3"/>
<path d="M84.2671 79.0662C84.2671 79.3444 83.9876 79.5356 83.7334 79.4226C82.9513 79.0747 82.285 78.6686 81.7827 78.2084C81.6024 78.0433 81.4398 77.819 81.3 77.6336V76.185C81.3 77.3015 82.4283 78.3158 84.2671 79.0662Z" fill="#C8CED3"/>
<ellipse cx="92.0998" cy="76.185" rx="10.8" ry="4.185" fill="#FAFDFF"/>
<path d="M102.45 76.05C102.45 78.0382 97.8161 79.65 92.1 79.65C86.3839 79.65 81.75 78.0382 81.75 76.05C81.75 74.0618 86.3839 72.225 92.1 72.225C97.8161 72.225 102.45 74.0618 102.45 76.05Z" fill="#C8CED3"/>
<path d="M176.571 36.7436C177.231 31.6912 179.431 29.3114 180.75 28.3962C179.814 28.3734 178.861 28.2619 177.908 28.1505C175.549 27.8748 173.187 27.5987 171.073 28.6613C169.847 29.2772 168.378 29.5079 166.874 29.7441C164.735 30.0802 162.525 30.4274 160.845 31.9109C159.658 32.9599 158.851 33.5383 158.179 34.02C157.233 34.6983 156.554 35.185 155.457 36.524C150.909 42.0756 151.377 50.039 153.531 54.1911C153.72 54.5571 153.923 54.8934 154.137 55.1959C154.55 55.2676 154.959 55.3261 155.366 55.372C159.942 55.8889 164.102 54.8061 167.334 52.8895C169.129 51.8246 170.088 50.6008 171.074 49.3425C171.839 48.3661 172.621 47.369 173.822 46.4092C175.989 44.6777 176.203 41.5437 176.39 38.8175V38.8174C176.44 38.0851 176.488 37.3821 176.571 36.7436Z" fill="#BF7213"/>
<path d="M162.296 41.4599C161.367 40.956 159.812 38.6657 159.086 37.4027C159.107 38.69 159.966 41.137 161.131 42.5586C161.499 42.1983 161.886 41.8331 162.296 41.4599Z" fill="#082946"/>
<path d="M167.422 37.2149L167.456 37.1883C167.68 37.0139 167.909 36.8367 168.143 36.6567C167.745 36.1451 167.68 35.6684 167.664 34.7666C167.398 35.7922 167.331 36.3623 167.422 37.2149Z" fill="#082946"/>
<path fill-rule="evenodd" clip-rule="evenodd" d="M159.726 48.5367C159.396 48.5207 159.049 48.4975 158.681 48.4666C158.331 49.0937 157.989 49.7459 157.646 50.4352L153.531 54.1911C154.467 53.1909 155.657 49.7312 156.743 47.9824C155.597 46.6185 155.301 45.6405 154.797 43.8829C154.869 43.9957 154.938 44.1051 155.005 44.2111C155.794 45.4615 156.295 46.2557 157.432 46.924C158.471 45.403 159.639 44.0202 161.131 42.5586C159.966 41.137 159.107 38.69 159.086 37.4027C159.812 38.6657 161.367 40.956 162.296 41.4599C163.7 40.1826 165.37 38.8111 167.422 37.2149C167.331 36.3623 167.398 35.7922 167.664 34.7666C167.68 35.6684 167.745 36.1451 168.143 36.6567C169.201 35.8416 170.356 34.9679 171.623 34.02C169.212 36.1781 167.268 37.9775 165.655 39.5828C167.015 40.1117 167.766 40.1567 168.836 40.2209L168.587 40.4482C167.434 40.6865 166.498 40.743 164.787 40.4597C162.592 42.7187 161.052 44.6254 159.732 46.7008C160.227 46.937 160.681 47.1217 161.114 47.2693L159.726 48.5367Z" fill="#082946"/>
<path d="M165.684 48.0567C165.396 48.0235 165.122 47.9937 164.86 47.9652C163.44 47.8106 162.36 47.6932 161.114 47.2693L159.726 48.5367C161.877 48.6413 163.335 48.441 165.684 48.0567Z" fill="#082946"/>
<path d="M168.836 40.2209L168.587 40.4482C168.851 40.3938 169.125 40.3299 169.423 40.2584C169.215 40.2436 169.021 40.232 168.836 40.2209Z" fill="#082946"/>
<path d="M154.467 56.514C153.75 57.3269 152.703 55.227 152.818 54.9763C152.932 54.7256 153.531 54.1911 153.531 54.1911L157.646 50.4352C156.925 51.8808 155.836 54.7177 155.366 55.372C154.896 56.0262 155.184 55.7011 154.467 56.514Z" fill="#082946"/>
<path d="M113.335 35.9072C112.469 29.2759 109.582 26.1525 107.85 24.9512C109.078 24.9212 110.329 24.775 111.581 24.6287C114.676 24.2668 117.777 23.9044 120.552 25.2991C122.16 26.1075 124.088 26.4104 126.062 26.7204C128.87 27.1615 131.771 27.6171 133.975 29.5643C135.533 30.9411 136.592 31.7002 137.474 32.3325L137.474 32.3325C138.717 33.2228 139.608 33.8615 141.047 35.619C147.016 42.9055 146.403 53.3575 143.576 58.8071C143.326 59.2874 143.06 59.7289 142.779 60.1259C142.238 60.2199 141.7 60.2967 141.167 60.357C135.161 61.0354 129.701 59.6142 125.459 57.0986C123.102 55.7009 121.843 54.0947 120.549 52.4432C119.545 51.1617 118.52 49.853 116.943 48.5933C114.099 46.3206 113.818 42.2073 113.573 38.6291C113.507 37.6679 113.444 36.7452 113.335 35.9072Z" fill="#F2A200"/>
<path d="M132.071 42.0974C133.291 41.436 135.331 38.43 136.284 36.7722C136.256 38.4619 135.13 41.6736 133.601 43.5395C133.118 43.0665 132.609 42.5872 132.071 42.0974Z" fill="#082946"/>
<path d="M125.344 36.5258L125.299 36.4909C125.004 36.262 124.704 36.0295 124.397 35.7932C124.92 35.1217 125.005 34.4961 125.026 33.3124C125.375 34.6585 125.463 35.4067 125.344 36.5258Z" fill="#082946"/>
<path fill-rule="evenodd" clip-rule="evenodd" d="M135.445 51.3857C135.878 51.3646 136.333 51.3342 136.816 51.2937C137.275 52.1167 137.724 52.9727 138.175 53.8774L143.576 58.8071C142.347 57.4943 140.785 52.9534 139.359 50.6581C140.864 48.8681 141.252 47.5844 141.914 45.2776C141.82 45.4257 141.729 45.5692 141.641 45.7084C140.605 47.3494 139.947 48.3919 138.455 49.269C137.091 47.2727 135.559 45.4578 133.601 43.5395C135.13 41.6736 136.256 38.4619 136.284 36.7722C135.331 38.43 133.291 41.436 132.071 42.0974C130.228 40.4209 128.037 38.6208 125.344 36.5258C125.463 35.4067 125.375 34.6585 125.026 33.3124C125.005 34.4961 124.92 35.1217 124.397 35.7932C123.008 34.7233 121.492 33.5766 119.83 32.3325C122.994 35.165 125.545 37.5268 127.663 39.6337C125.878 40.3278 124.891 40.387 123.487 40.4712L123.814 40.7695C125.327 41.0823 126.555 41.1564 128.801 40.7846C131.683 43.7496 133.704 46.2522 135.437 48.976C134.787 49.2861 134.191 49.5285 133.622 49.7222L135.445 51.3857Z" fill="#082946"/>
<path d="M127.624 50.7556C128.003 50.7121 128.362 50.673 128.705 50.6356C130.57 50.4327 131.987 50.2785 133.622 49.7222L135.445 51.3857C132.621 51.523 130.708 51.26 127.624 50.7556Z" fill="#082946"/>
<path d="M123.487 40.4712L123.814 40.7695C123.468 40.6981 123.108 40.6142 122.717 40.5204C122.99 40.501 123.245 40.4857 123.487 40.4712Z" fill="#082946"/>
<path d="M142.347 61.8559C143.288 62.9228 144.662 60.1667 144.512 59.8376C144.361 59.5086 143.576 58.8071 143.576 58.8071L138.175 53.8774C139.121 55.7749 140.55 59.4983 141.167 60.357C141.784 61.2157 141.406 60.7889 142.347 61.8559Z" fill="#082946"/>
</svg>
