<svg width="181" height="180" viewBox="0 0 181 180" fill="none" xmlns="http://www.w3.org/2000/svg">
<g clip-path="url(#clip0_444_11567)">
<circle cx="90.25" cy="90" r="81" transform="rotate(-90 90.25 90)" fill="#285C8A"/>
<path d="M90.25 171C45.5149 171 9.25 134.735 9.25 90L171.25 90L171.25 147.857C171.25 160.639 160.889 171 148.107 171L90.25 171Z" fill="#285C8A"/>
<path d="M1.10127 109.018L40.5425 66.8842C41.1182 66.2037 42.1052 66.0468 42.8634 66.5155L56.5924 75.0026C58.012 75.8802 59.8487 75.667 61.0295 74.4875L104.895 30.6719C105.469 30.0981 106.357 29.98 107.061 30.3834L128.76 42.8087C130.106 43.5796 131.795 43.4013 132.95 42.3662L180.25 0V69.9218C180.25 71.2078 179.564 72.3962 178.45 73.0393L2.95018 174.391C1.75017 175.084 0.25 174.218 0.25 172.832V111.343C0.25 110.492 0.551604 109.668 1.10127 109.018Z" fill="#F2A200"/>
<path d="M158.6 77.6355L172.375 48.3782L140.15 45.6792L147.984 55.6481L-19.9742 152.619L-14.0745 162.837L153.884 65.8666L158.6 77.6355Z" fill="#377EBD"/>
<path d="M102.934 75.4384L111.242 56.7971L90.8823 55.3807L95.9528 61.619L-8.71705 124.511L-4.86329 130.925L99.8066 68.0327L102.934 75.4384Z" fill="#FAFDFF"/>
<path d="M87.4703 138.876L96.102 120.382L75.7703 118.611L80.7312 124.937L-25.0204 185.992L-21.2791 192.473L84.4724 131.417L87.4703 138.876Z" fill="#082946"/>
<path d="M25.873 28.9504C21.9331 30.782 21.6161 30.3259 11.669 34.433C10.3265 34.9873 9.71513 36.5455 10.3279 37.8556L16.4313 50.9039C17.0264 52.1761 18.5366 52.7138 19.7881 52.064C23.6349 50.067 25.7649 48.7797 29.7094 46.946C32.025 45.8696 36.2054 46.1935 37.9254 46.8186C40.5818 47.7841 56.5303 53.2059 61.4004 54.976C66.2705 56.7461 68.1212 51.6683 66.5564 49.5994C68.8454 49.6813 72.3566 46.5821 69.2773 43.3378C73.1108 43.481 75.2433 39.0057 71.9982 37.0761C74.9211 37.1384 78.4823 32.1823 72.9481 30.1708L56.6978 24.8894L57.1001 23.7856C57.5024 22.6817 55.661 21.8874 54.806 23.2017L50.4739 16.3771C50.4739 16.3771 30.1252 26.9737 25.873 28.9504Z" fill="#082946"/>
<path d="M42.2813 50.5479C40.3315 52.7195 34.4234 51.1176 36.5259 46.1853C38.6284 41.253 44.6654 42.7682 43.0538 48.4012C46.6073 42.5989 51.4174 46.5974 49.5816 50.617C52.7956 45.2232 58.4607 47.9073 56.1095 52.8329C59.3589 48.0399 64.2846 50.5815 62.6373 55.0487C60.61 59.8045 55.6244 57.686 55.1762 55.1337C53.6735 56.857 49.0047 57.2987 48.7287 52.8408C46.2166 55.7309 41.4802 54.229 42.2813 50.5479Z" fill="#00BAB0"/>
<path d="M79.7226 21.4585C77.6865 23.08 76.2476 24.914 75.5026 26.5992C74.4313 29.0223 72.9474 30.1708 72.9474 30.1708L56.697 24.8894L57.0994 23.7856C57.5017 22.6817 55.6603 21.8874 54.8052 23.2017C53.9501 24.5161 51.8678 27.6845 49.4934 29.5218C46.5255 31.8183 42.8631 32.2373 41.2531 31.152C40.7337 30.8019 40.3979 30.4492 40.1899 30.1196C39.6175 29.2125 40.5061 28.2806 41.3239 27.5867C43.8429 25.4495 46.7969 22.1302 48.9789 18.2088C50.4476 16.2425 52.0005 13.6707 56.649 12.61C60.7602 11.6718 65.2901 9.482 71.5173 5.68069C77.7445 1.87939 77.1059 1.68501 78.9106 0.495753C80.2747 -0.403163 82.1735 0.0729973 82.8632 1.54747L88.6949 14.0151C89.3212 15.3541 88.6737 16.9421 87.2878 17.4742C84.7396 18.4526 81.7587 19.8371 79.7226 21.4585Z" fill="#00BAB0"/>
<path fill-rule="evenodd" clip-rule="evenodd" d="M113.654 121.95C111.418 121.95 109.604 123.763 109.604 126V142.2C109.604 144.437 111.418 146.25 113.654 146.25H117.053V154.383L128.127 146.25H131.96V138.15C131.96 135.164 134.388 132.75 137.373 132.75H148.89V126C148.89 123.763 147.076 121.95 144.84 121.95H113.654ZM106.904 126C106.904 122.272 109.926 119.25 113.654 119.25H144.84C148.568 119.25 151.59 122.272 151.59 126V135.45H137.373C135.871 135.45 134.66 136.663 134.66 138.15V148.95H129.012L114.353 159.717V148.95H113.654C109.926 148.95 106.904 145.928 106.904 142.2V126Z" fill="#00BAB0"/>
<path d="M138.711 132.3C134.734 132.3 131.511 135.524 131.511 139.5V155.7C131.511 159.676 134.734 162.9 138.711 162.9H154.391L169.647 174.105V162.9H169.896C173.873 162.9 177.096 159.676 177.096 155.7V139.5C177.096 135.524 173.873 132.3 169.896 132.3H138.711Z" fill="#5DABF0"/>
<path fill-rule="evenodd" clip-rule="evenodd" d="M139.301 141.789C139.301 141.27 139.723 140.85 140.243 140.85H168.509C169.029 140.85 169.451 141.27 169.451 141.789V142.259C169.451 142.777 169.029 143.198 168.509 143.198H140.243C139.723 143.198 139.301 142.777 139.301 142.259V141.789ZM139.301 152.941C139.301 152.423 139.723 152.002 140.243 152.002H168.509C169.029 152.002 169.451 152.423 169.451 152.941V153.411C169.451 153.93 169.029 154.35 168.509 154.35H140.243C139.723 154.35 139.301 153.93 139.301 153.411V152.941ZM140.243 146.426C139.723 146.426 139.301 146.847 139.301 147.365V147.835C139.301 148.353 139.723 148.774 140.243 148.774H168.509C169.029 148.774 169.451 148.353 169.451 147.835V147.365C169.451 146.847 169.029 146.426 168.509 146.426H140.243Z" fill="#082946"/>
</g>
<defs>
<clipPath id="clip0_444_11567">
<rect width="180" height="180" fill="white" transform="translate(0.25)"/>
</clipPath>
</defs>
</svg>
