<svg width="181" height="180" viewBox="0 0 181 180" fill="none" xmlns="http://www.w3.org/2000/svg">
<circle cx="90.25" cy="90" r="81" transform="rotate(-180 90.25 90)" fill="#285C8A"/>
<path d="M171.25 90C-nan -nan -nan -nan 90.25 171L-nan -nanL90.25 171L90.25 8.99998L148.107 8.99998C160.889 8.99998 171.25 19.3614 171.25 32.1429L171.25 90Z" fill="#285C8A"/>
<path d="M32.4964 87.456C26.7177 87.6543 23.7915 89.8813 22.6147 91.2729C22.6903 90.2133 22.6676 89.1246 22.6449 88.0353C22.5888 85.3414 22.5326 82.6432 23.9618 80.3699C24.7902 79.0523 25.2098 77.4179 25.6394 75.7447C26.2507 73.3641 26.8821 70.9051 28.7396 69.169C30.0531 67.9413 30.7938 67.0924 31.4107 66.3854L31.4107 66.3854C32.2794 65.3898 32.9026 64.6756 34.5339 63.5814C41.2973 59.0451 50.2422 60.4353 54.6992 63.3179C55.092 63.572 55.45 63.8377 55.7686 64.1119C55.8048 64.5857 55.8266 65.0549 55.8345 65.5189C55.9229 70.7441 54.2496 75.3256 51.7346 78.769C50.3373 80.6822 48.8511 81.633 47.3231 82.6105C46.1373 83.369 44.9264 84.1437 43.7122 85.3967C41.5216 87.6572 37.9584 87.56 34.8586 87.4754L34.8585 87.4754C34.0258 87.4527 33.2266 87.4309 32.4964 87.456Z" fill="#BF7213"/>
<path d="M39.3688 71.8416C38.9002 70.7367 36.4814 68.7329 35.1333 67.7758C36.5851 67.9392 39.2564 69.1738 40.7361 70.6439C40.2892 71.0204 39.8348 71.4186 39.3688 71.8416Z" fill="#082946"/>
<path d="M34.0188 77.1716L33.9851 77.2074C33.7637 77.442 33.5389 77.6814 33.3103 77.9259C32.7754 77.4206 32.244 77.2959 31.2271 77.1798C32.4143 76.9908 33.0655 76.9767 34.0188 77.1716Z" fill="#082946"/>
<path fill-rule="evenodd" clip-rule="evenodd" d="M47.641 69.7036C47.6586 69.3291 47.6699 68.9354 47.675 68.516C48.4211 68.1887 49.1948 67.8732 50.0107 67.5596L54.6988 63.3179C53.4676 64.2675 49.4307 65.2371 47.3377 66.2748C45.9212 64.8323 44.8484 64.3926 42.9176 63.6326C43.0373 63.7257 43.1534 63.8156 43.2659 63.9027C44.5928 64.9297 45.4357 65.5821 46.0676 66.9386C44.237 67.9475 42.5486 69.1168 40.7361 70.6439C39.2564 69.1738 36.5851 67.9392 35.1333 67.7758C36.4814 68.7329 38.9002 70.7367 39.3688 71.8416C37.774 73.2893 36.044 75.0264 34.0188 77.1716C33.0655 76.9767 32.4143 76.9908 31.2271 77.1798C32.244 77.2959 32.7754 77.4206 33.3103 77.9259C32.2749 79.0332 31.1629 80.2434 29.9551 81.571C32.6539 79.0813 34.8969 77.0809 36.8849 75.4319C37.3351 77.0253 37.3046 77.8795 37.2612 79.0951L37.545 78.8383C37.9389 77.5618 38.1041 76.5106 37.9693 74.5473C40.7588 72.3115 43.0793 70.7782 45.5665 69.5118C45.7798 70.0967 45.9393 70.6292 46.059 71.135L47.641 69.7036Z" fill="#082946"/>
<path d="M46.4538 76.3825C46.4475 76.0532 46.4435 75.7411 46.4396 75.4421C46.4188 73.8205 46.403 72.5881 46.059 71.135L47.641 69.7036C47.5262 72.1457 47.1421 73.7705 46.4538 76.3825Z" fill="#082946"/>
<path d="M37.2612 79.0951L37.545 78.8383C37.455 79.1299 37.3531 79.4333 37.2401 79.7619C37.2459 79.5251 37.2538 79.3047 37.2612 79.0951Z" fill="#082946"/>
<path d="M57.2214 64.6272C58.2172 63.9054 55.9585 62.4953 55.663 62.5974C55.3674 62.6996 54.6988 63.3179 54.6988 63.3179L50.0107 67.5596C51.7217 66.9019 55.0441 65.9792 55.8341 65.5188C56.624 65.0585 56.2255 65.3491 57.2214 64.6272Z" fill="#082946"/>
<path d="M15.9301 40.8899C12.7691 33.2358 8.31521 30.4251 5.85853 29.5433C7.31807 29.1139 8.76739 28.5381 10.2176 27.9619C13.8041 26.5371 17.3961 25.11 21.1623 25.8888C23.3452 26.3402 25.7484 26.0845 28.2085 25.8227C31.709 25.4503 35.3246 25.0656 38.5846 26.6882C40.8898 27.8356 42.3999 28.4041 43.6576 28.8776C45.4286 29.5444 46.6991 30.0228 48.9844 31.6635C58.4592 38.4657 61.075 51.1638 59.44 58.5881C59.2959 59.2425 59.1188 59.8559 58.9104 60.4207C58.2928 60.7067 57.6743 60.9709 57.0556 61.2139C50.089 63.9503 43.1035 64.0002 37.2234 62.3509C33.9564 61.4345 31.9362 59.9167 29.8591 58.3561L29.8591 58.3561C28.2473 57.1451 26.6013 55.9084 24.3119 54.907C20.1815 53.1003 18.5269 48.2706 17.0874 44.0692C16.7008 42.9405 16.3296 41.8571 15.9301 40.8899Z" fill="#F2A200"/>
<path d="M40.3235 42.2892C41.5713 41.1069 43.0481 36.8576 43.657 34.5694C44.165 36.5993 43.8467 40.8019 42.6155 43.5237C41.8865 43.1127 41.1245 42.7025 40.3235 42.2892Z" fill="#082946"/>
<path d="M30.4919 37.781L30.427 37.7537C30.0013 37.5742 29.5674 37.3924 29.1249 37.2082C29.5349 36.2374 29.4361 35.4619 29.0823 34.0393C29.9308 35.5376 30.2759 36.4043 30.4919 37.781Z" fill="#082946"/>
<path fill-rule="evenodd" clip-rule="evenodd" d="M47.3363 52.3173C47.8476 52.1533 48.3815 51.9712 48.9468 51.7679C49.7597 52.6051 50.5706 53.4852 51.4001 54.4227L59.44 58.5881C57.549 57.4118 54.2258 52.4811 51.7849 50.1926C53.0107 47.5694 53.0632 45.9098 53.1158 42.9384C53.0508 43.1457 52.9884 43.3463 52.9279 43.541C52.2146 45.8359 51.7615 47.2937 50.2579 48.821C47.9872 46.8703 45.5725 45.1907 42.6155 43.5237C43.8467 40.8019 44.165 36.5993 43.657 34.5694C43.0481 36.8576 41.5713 41.1069 40.3235 42.2892C37.5822 40.8746 34.3848 39.4236 30.4919 37.781C30.2759 36.4043 29.9308 35.5376 29.0823 34.0393C29.4361 35.4619 29.5349 36.2374 29.1249 37.2082C27.1205 36.3737 24.9396 35.488 22.5532 34.5325C27.2458 36.9064 31.0535 38.9137 34.2619 40.755C32.3496 42.1573 31.1882 42.5443 29.5355 43.0951L30.0221 43.3472C31.9322 43.2363 33.4254 42.9313 35.9921 41.7668C40.3894 44.3896 43.6091 46.735 46.5544 49.4377C45.8764 50.017 45.2418 50.4977 44.6232 50.9117L47.3363 52.3173Z" fill="#082946"/>
<path d="M37.7802 54.0702C38.2188 53.8968 38.6356 53.7351 39.0348 53.5801C41.2002 52.7398 42.8458 52.1012 44.6232 50.9117L47.3363 52.3173C44.0021 53.3867 41.6297 53.6853 37.7802 54.0702Z" fill="#082946"/>
<path d="M29.5355 43.0951L30.0221 43.3472C29.5858 43.3725 29.1277 43.3877 28.6301 43.4007C28.9508 43.29 29.2504 43.1901 29.5355 43.0951Z" fill="#082946"/>
<path d="M58.9469 62.6286C60.4143 63.6031 61.1748 59.8662 60.8896 59.5208C60.6045 59.1754 59.44 58.5881 59.44 58.5881L51.4001 54.4227C53.1398 56.389 56.0422 60.3846 57.0556 61.2139C58.069 62.0432 57.4795 61.6541 58.9469 62.6286Z" fill="#082946"/>
<path d="M85.975 30.6318C86.792 24.3755 89.5156 21.4287 91.1497 20.2953C89.9909 20.2671 88.8107 20.1291 87.6298 19.9911C84.7094 19.6497 81.7844 19.3078 79.1664 20.6236C77.6489 21.3863 75.8298 21.672 73.9677 21.9645C71.3181 22.3807 68.5814 22.8105 66.5021 24.6475C65.0319 25.9465 64.0327 26.6627 63.2005 27.2592L63.2005 27.2592C62.0286 28.0992 61.1879 28.7017 59.8296 30.3599C54.198 37.2343 54.777 47.0952 57.4443 52.2367C57.6794 52.6898 57.9307 53.1063 58.1954 53.4809C58.7063 53.5696 59.2136 53.6421 59.7169 53.6989C65.3834 54.3389 70.5342 52.9982 74.5364 50.6248C76.76 49.3062 77.9475 47.7908 79.1684 46.2327L79.1684 46.2327C80.1157 45.0237 81.0833 43.7889 82.5707 42.6004C85.2541 40.4563 85.5195 36.5756 85.7503 33.1998C85.8123 32.2929 85.8718 31.4224 85.975 30.6318Z" fill="#BF7213"/>
<path d="M68.2988 36.4719C67.1474 35.8479 65.2226 33.0118 64.3233 31.4479C64.3497 33.0419 65.4127 36.0721 66.8555 37.8324C67.311 37.3862 67.7909 36.934 68.2988 36.4719Z" fill="#082946"/>
<path d="M74.6454 31.2154L74.6877 31.1824C74.9656 30.9664 75.2491 30.7471 75.5385 30.5242C75.0453 29.8907 74.9651 29.3004 74.9449 28.1837C74.6159 29.4537 74.5328 30.1596 74.6454 31.2154Z" fill="#082946"/>
<path fill-rule="evenodd" clip-rule="evenodd" d="M65.1154 45.2349C64.7067 45.2151 64.2779 45.1863 63.8217 45.1481C63.3886 45.9246 62.9654 46.7322 62.5398 47.5857L57.4442 52.2366C58.6039 50.9981 60.0773 46.714 61.4224 44.5485C60.003 42.8597 59.6371 41.6486 59.0125 39.4722C59.1012 39.6119 59.1867 39.7473 59.2696 39.8787C60.247 41.4269 60.868 42.4104 62.2757 43.238C63.5622 41.3545 65.008 39.6423 66.8555 37.8324C65.4127 36.0721 64.3497 33.0419 64.3233 31.4479C65.2226 33.0118 67.1474 35.8479 68.2988 36.4719C70.0373 34.8902 72.1043 33.1919 74.6454 31.2154C74.5328 30.1596 74.6159 29.4537 74.9449 28.1837C74.9651 29.3004 75.0453 29.8907 75.5385 30.5242C76.849 29.5148 78.2793 28.433 79.8472 27.2592C76.8618 29.9315 74.4554 32.1597 72.4573 34.1475C74.1412 34.8024 75.0722 34.8582 76.3971 34.9376L76.0887 35.2191C74.6612 35.5142 73.5021 35.5841 71.3835 35.2333C68.6645 38.0306 66.7575 40.3917 65.1229 42.9615C65.7361 43.2541 66.2979 43.4828 66.8349 43.6655L65.1154 45.2349Z" fill="#082946"/>
<path d="M72.4937 44.6405C72.1368 44.5994 71.7981 44.5626 71.4737 44.5273C69.7145 44.3359 68.3774 44.1904 66.8349 43.6655L65.1154 45.2349C67.78 45.3644 69.5848 45.1163 72.4937 44.6405Z" fill="#082946"/>
<path d="M76.3971 34.9376L76.0887 35.2191C76.4148 35.1517 76.7549 35.0726 77.1237 34.984C76.8659 34.9657 76.6256 34.9513 76.3971 34.9376Z" fill="#082946"/>
<path d="M58.6039 55.113C57.7162 56.1196 56.4196 53.5193 56.5613 53.2089C56.703 52.8985 57.4442 52.2366 57.4442 52.2366L62.5398 47.5857C61.6472 49.3759 60.2991 52.8887 59.7168 53.6989C59.1346 54.509 59.4917 54.1064 58.6039 55.113Z" fill="#082946"/>
<path d="M93.8276 147.125C94.1203 153.427 91.9556 156.806 90.5456 158.208C91.6914 158.033 92.8775 157.962 94.0643 157.891C96.9993 157.715 99.9389 157.538 102.286 155.784C103.646 154.767 105.387 154.167 107.169 153.552C109.704 152.678 112.323 151.775 114.048 149.602C115.268 148.065 116.126 147.185 116.841 146.451L116.841 146.451C117.847 145.419 118.569 144.678 119.616 142.808C123.955 135.052 121.655 125.446 118.128 120.852C117.817 120.447 117.497 120.081 117.17 119.758C116.652 119.761 116.14 119.778 115.634 119.811C109.943 120.174 105.107 122.397 101.583 125.436C99.6254 127.124 98.722 128.824 97.7933 130.572L97.7932 130.572C97.0726 131.928 96.3365 133.313 95.0805 134.744C92.8147 137.326 93.2339 141.193 93.5986 144.557C93.6966 145.461 93.7906 146.328 93.8276 147.125Z" fill="#F2A200"/>
<path d="M110.206 138.275C111.449 138.688 113.841 141.142 115.001 142.525C114.696 140.96 113.118 138.163 111.389 136.683C111.018 137.202 110.625 137.731 110.206 138.275Z" fill="#082946"/>
<path d="M104.88 144.563L104.844 144.603C104.608 144.865 104.367 145.13 104.122 145.4C104.718 145.938 104.901 146.505 105.116 147.601C105.218 146.293 105.176 145.583 104.88 144.563Z" fill="#082946"/>
<path fill-rule="evenodd" clip-rule="evenodd" d="M111.804 129.09C112.209 129.038 112.637 128.991 113.092 128.949C113.383 128.108 113.658 127.239 113.927 126.324L118.128 120.852C117.204 122.274 116.504 126.75 115.56 129.118C117.253 130.532 117.826 131.66 118.823 133.693C118.711 133.571 118.603 133.453 118.498 133.338C117.264 131.985 116.481 131.126 114.95 130.558C114.013 132.638 112.89 134.577 111.389 136.683C113.118 138.163 114.696 140.96 115.001 142.525C113.841 141.142 111.449 138.688 110.206 138.275C108.772 140.137 107.035 142.172 104.88 144.563C105.176 145.583 105.218 146.293 105.116 147.601C104.901 146.505 104.718 145.938 104.122 145.4C103.008 146.624 101.79 147.94 100.452 149.37C102.923 146.216 104.901 143.6 106.52 141.293C104.747 140.944 103.821 141.052 102.502 141.206L102.757 140.875C104.11 140.334 105.239 140.062 107.386 140.036C109.573 136.805 111.036 134.146 112.195 131.33C111.54 131.149 110.947 131.022 110.386 130.937L111.804 129.09Z" fill="#082946"/>
<path d="M104.644 130.969C105.003 130.947 105.342 130.924 105.668 130.902C107.434 130.782 108.775 130.69 110.386 130.937L111.804 129.09C109.158 129.43 107.424 129.99 104.644 130.969Z" fill="#082946"/>
<path d="M102.502 141.206L102.757 140.875C102.447 140.998 102.126 141.136 101.779 141.288C102.036 141.26 102.275 141.233 102.502 141.206Z" fill="#082946"/>
<path d="M116.482 118.223C117.18 117.077 118.912 119.409 118.827 119.74C118.742 120.07 118.128 120.852 118.128 120.852L113.927 126.324C114.492 124.405 115.203 120.71 115.634 119.811C116.066 118.911 115.785 119.37 116.482 118.223Z" fill="#082946"/>
<path d="M160.529 138.45C163.726 146.826 168.433 150.001 171.046 151.029C169.469 151.45 167.9 152.029 166.33 152.608C162.447 154.041 158.558 155.477 154.538 154.52C152.208 153.966 149.624 154.17 146.978 154.379C143.214 154.676 139.326 154.983 135.87 153.129C133.426 151.818 131.821 151.157 130.484 150.607C128.601 149.832 127.25 149.276 124.84 147.432C114.848 139.787 112.363 125.97 114.304 117.988C114.475 117.284 114.681 116.626 114.919 116.021C115.588 115.73 116.258 115.463 116.928 115.219C124.47 112.469 131.964 112.627 138.23 114.589C141.711 115.679 143.84 117.382 146.029 119.133C147.727 120.492 149.461 121.879 151.892 123.032C156.277 125.111 157.93 130.386 159.368 134.975L159.368 134.975C159.754 136.208 160.125 137.391 160.529 138.45Z" fill="#BF7213"/>
<path d="M134.398 136.199C133.03 137.44 131.339 141.992 130.628 144.449C130.134 142.238 130.582 137.701 131.971 134.794C132.743 135.26 133.55 135.727 134.398 136.199Z" fill="#082946"/>
<path d="M144.831 141.373L144.9 141.404C145.352 141.611 145.813 141.821 146.283 142.034C145.818 143.072 145.905 143.914 146.248 145.463C145.376 143.817 145.028 142.869 144.831 141.373Z" fill="#082946"/>
<path fill-rule="evenodd" clip-rule="evenodd" d="M127.129 125.138C126.577 125.3 125.999 125.481 125.388 125.683C124.537 124.753 123.689 123.776 122.823 122.737L114.304 117.988C116.303 119.318 119.743 124.752 122.304 127.302C120.923 130.103 120.824 131.897 120.693 135.109C120.768 134.887 120.84 134.672 120.91 134.463C121.733 132.002 122.256 130.439 123.907 128.832C126.294 131.011 128.841 132.901 131.971 134.794C130.582 137.701 130.134 142.238 130.628 144.449C131.339 141.992 133.03 137.44 134.398 136.199C137.303 137.812 140.696 139.478 144.831 141.373C145.028 142.869 145.376 143.817 146.248 145.463C145.905 143.914 145.818 143.072 146.283 142.034C148.411 142.997 150.728 144.021 153.264 145.127C148.291 142.417 144.257 140.131 140.862 138.042C142.948 136.582 144.204 136.199 145.991 135.653L145.475 135.365C143.423 135.428 141.814 135.712 139.031 136.895C134.381 133.924 130.986 131.29 127.895 128.277C128.637 127.67 129.33 127.17 130.004 126.74L127.129 125.138Z" fill="#082946"/>
<path d="M137.424 123.53C136.949 123.705 136.498 123.867 136.066 124.022C133.722 124.866 131.941 125.507 130.004 126.74L127.129 125.138C130.733 124.082 133.285 123.83 137.424 123.53Z" fill="#082946"/>
<path d="M145.991 135.653L145.475 135.365C145.944 135.351 146.435 135.349 146.97 135.35C146.623 135.46 146.299 135.559 145.991 135.653Z" fill="#082946"/>
<path d="M114.935 113.632C113.386 112.533 112.476 116.553 112.773 116.935C113.07 117.317 114.304 117.988 114.304 117.988L122.823 122.737C121.007 120.557 117.994 116.147 116.928 115.219C115.862 114.291 116.485 114.73 114.935 113.632Z" fill="#082946"/>
<path d="M152.093 94.6933C158.177 96.3635 161.949 94.994 163.627 93.9265C163.204 95.0058 162.874 96.1473 162.544 97.2894C161.727 100.114 160.909 102.943 158.682 104.847C157.391 105.951 156.423 107.517 155.432 109.121C154.022 111.402 152.566 113.759 150.067 114.964C148.3 115.816 147.252 116.46 146.38 116.996L146.38 116.996C145.152 117.751 144.271 118.293 142.216 118.903C133.697 121.432 124.83 117.079 121.123 112.628C120.796 112.236 120.51 111.843 120.267 111.453C120.383 110.948 120.513 110.452 120.655 109.966C122.26 104.494 125.491 100.265 129.23 97.4945C131.307 95.9553 133.164 95.4475 135.073 94.9255L135.073 94.9255C136.555 94.5204 138.068 94.1067 139.74 93.1958C142.756 91.5523 146.436 92.8109 149.638 93.9058C150.498 94.1999 151.324 94.4822 152.093 94.6933Z" fill="#F2A200"/>
<path d="M139.861 108.727C139.991 110.031 141.86 112.904 142.953 114.339C141.494 113.697 139.112 111.543 138.048 109.531C138.636 109.284 139.239 109.017 139.861 108.727Z" fill="#082946"/>
<path d="M147.166 104.913L147.213 104.886C147.519 104.714 147.831 104.537 148.149 104.357C148.542 105.057 149.055 105.36 150.077 105.811C148.779 105.622 148.096 105.425 147.166 104.913Z" fill="#082946"/>
<path fill-rule="evenodd" clip-rule="evenodd" d="M130.549 108.268C130.409 108.652 130.27 109.059 130.128 109.494C129.245 109.593 128.336 109.67 127.384 109.732L121.123 112.628C122.714 112.039 127.234 112.34 129.752 111.939C130.759 113.901 131.734 114.708 133.498 116.127C133.404 115.991 133.312 115.859 133.223 115.732C132.174 114.231 131.508 113.278 131.29 111.659C133.525 111.203 135.664 110.533 138.048 109.531C139.112 111.543 141.494 113.697 142.953 114.339C141.86 112.904 139.991 110.031 139.861 108.727C141.993 107.737 144.359 106.49 147.166 104.913C148.096 105.425 148.779 105.622 150.077 105.811C149.055 105.36 148.542 105.057 148.149 104.357C149.587 103.54 151.139 102.64 152.828 101.649C149.208 103.366 146.222 104.722 143.615 105.794C143.664 103.988 143.973 103.108 144.413 101.856L144.034 102.031C143.209 103.233 142.695 104.274 142.198 106.363C138.566 107.787 135.65 108.63 132.648 109.142C132.616 108.463 132.623 107.856 132.662 107.291L130.549 108.268Z" fill="#082946"/>
<path d="M133.955 101.696C133.855 102.041 133.758 102.367 133.665 102.68C133.16 104.376 132.776 105.665 132.662 107.291L130.549 108.268C131.462 105.761 132.39 104.193 133.955 101.696Z" fill="#082946"/>
<path d="M144.413 101.856L144.034 102.031C144.222 101.756 144.427 101.474 144.651 101.168C144.568 101.413 144.489 101.64 144.413 101.856Z" fill="#082946"/>
<path d="M118.92 110.445C117.648 110.873 119.543 113.076 119.884 113.065C120.225 113.055 121.123 112.628 121.123 112.628L127.384 109.732C125.388 109.861 121.627 109.744 120.655 109.967C119.683 110.19 120.192 110.016 118.92 110.445Z" fill="#082946"/>
<path fill-rule="evenodd" clip-rule="evenodd" d="M131.634 55.7835L127.471 111.869C127.151 116.175 124.597 120.001 120.737 121.953L92.6027 136.185C90.9823 137.005 89.0675 137.005 87.4471 136.185L59.3124 121.953C55.453 120.001 52.8987 116.175 52.579 111.869L48.4157 55.7835C48.1986 52.859 50.2449 50.2489 53.1418 49.7554L87.946 43.8258C89.322 43.5914 90.7278 43.5914 92.1038 43.8258L126.908 49.7554C129.805 50.2489 131.851 52.859 131.634 55.7835ZM53.6215 52.5593C52.1731 52.8061 51.1499 54.1111 51.2585 55.5734L55.4218 111.659C55.6677 114.971 57.6326 117.914 60.6014 119.416L88.736 133.648C89.5462 134.058 90.5036 134.058 91.3138 133.648L119.448 119.416C122.417 117.914 124.382 114.971 124.628 111.659L128.791 55.5734C128.9 54.1111 127.877 52.8061 126.428 52.5593L91.624 46.6298C90.5656 46.4495 89.4842 46.4495 88.4258 46.6298L53.6215 52.5593Z" fill="#5DABF0"/>
<path d="M51.2585 55.5734C51.1499 54.1111 52.1731 52.8061 53.6215 52.5593L88.4258 46.6298C89.4842 46.4495 90.5656 46.4495 91.624 46.6298L126.428 52.5593C127.877 52.8061 128.9 54.1111 128.791 55.5734L124.628 111.659C124.382 114.971 122.417 117.914 119.448 119.416L91.3138 133.648C90.5036 134.058 89.5462 134.058 88.736 133.648L60.6014 119.416C57.6326 117.914 55.6677 114.971 55.4218 111.659L51.2585 55.5734Z" fill="#5DABF0"/>
<path d="M53.3576 57.2177C53.2548 55.8297 54.2239 54.5909 55.5958 54.3567L88.5616 48.7284C89.5641 48.5572 90.5884 48.5572 91.5909 48.7284L124.557 54.3567C125.929 54.5909 126.898 55.8297 126.795 57.2177L122.851 110.454C122.619 113.598 120.758 116.391 117.946 117.817L91.2971 131.326C90.5297 131.715 89.6228 131.715 88.8554 131.326L62.207 117.817C59.395 116.391 57.5339 113.598 57.301 110.454L53.3576 57.2177Z" fill="#082946"/>
<path fill-rule="evenodd" clip-rule="evenodd" d="M85.9319 110.25H106.632C110.232 110.25 112.482 105.3 110.232 103.05C112.482 102.6 114.732 99.9 112.482 95.85C114.282 94.95 115.182 91.8 113.832 89.1C116.982 87.3 115.857 81 110.907 81H97.3012C96.1104 81 95.2519 79.8607 95.5354 78.7043C97.3967 71.1112 96.7988 67.2954 92.5427 64.1072C91.4975 63.3243 90.1921 63 88.8863 63H88.6319C87.6378 63 86.8319 63.8059 86.8319 64.8V71.1668C86.8319 72.3117 86.6135 73.4462 86.1882 74.5093L82.4607 83.8281C82.3756 84.0408 82.3319 84.2677 82.3319 84.4966V106.65C82.3319 108.638 83.9437 110.25 85.9319 110.25ZM68.928 82.8H76.0819C78.2911 82.8 80.0819 84.5909 80.0819 86.8V106.25C80.0819 108.459 78.2911 110.25 76.0819 110.25H71.6382C69.6424 110.25 67.9519 108.779 67.6765 106.802L64.9662 87.352C64.6311 84.9466 66.4993 82.8 68.928 82.8Z" fill="#FAFDFF"/>
<g clip-path="url(#clip0_444_11545)">
<path d="M104.166 19.4271C104.402 16.9574 104.865 15.2584 105.514 13.4802V13.5C106.606 13.6185 109.451 14.7545 110.661 15.4658L110.878 14.6459C112.098 15.1793 114.184 16.6216 115.473 17.8268L115.788 17.0957C116.89 17.9252 118.012 19.2442 118.87 20.4363C119.533 19.8715 120.38 19.419 121.063 19.0616L121.221 19.7235C122.48 18.8838 124.449 17.9651 125.551 17.6885L125.61 18.4096C126.702 17.9947 129.094 17.4712 130.127 17.4712H130.265C130.57 19.0517 130.718 20.5533 130.57 22.6771L131.2 22.608C131.092 24.2478 130.688 26.4013 129.753 28.0609V28.0708L130.383 28.2684C129.586 30.244 128.562 31.5579 127.126 32.9606L127.854 33.4447C125.777 35.7661 122.648 37.5552 119.725 37.575C119.65 37.575 119.57 37.5772 119.49 37.5794L119.489 37.5794C119.403 37.5817 119.318 37.5841 119.239 37.5838C119.149 37.6624 119.055 37.7323 118.957 37.7912C117.747 38.5123 115.897 38.7 114.716 38.7C114.273 38.7 113.928 38.6703 113.741 38.6407C110.395 38.048 107.148 35.4104 105.209 32.3284L106.144 31.9135C104.766 30.0267 103.841 28.3177 103.3 25.8876L104.058 25.7789C103.3 23.6847 103.251 21.1262 103.447 19.2295L104.166 19.4271Z" fill="#082946"/>
<path d="M126.112 33.6126C124.406 35.1535 122.079 36.2111 120.169 36.4286L120.199 36.3837C120.32 36.2065 120.439 36.0304 120.561 35.8649C121.339 34.7954 121.979 33.4351 122.402 32.0007L122.402 32.0024C123.179 31.8839 123.947 31.7258 124.803 31.469C124.872 31.4492 124.911 31.3801 124.901 31.3109V31.3208C124.901 31.2517 124.832 31.2023 124.764 31.2023C123.923 31.2023 123.267 31.1828 122.622 31.1632C122.68 30.9101 122.732 30.656 122.776 30.4021C122.916 29.5852 122.954 28.7378 122.911 27.9053C124.288 27.9255 125.668 27.822 127.017 27.5374C127.086 27.5176 127.125 27.4583 127.125 27.3892C127.125 27.32 127.066 27.2608 126.998 27.2608C126.048 27.1972 125.381 27.1337 124.714 27.0701L124.537 27.0533C124.085 27.0039 123.592 26.9545 122.992 26.9051C123.661 26.0062 124.744 24.801 125.128 24.3763C126.427 24.2874 126.879 24.238 127.923 23.991C127.991 23.9811 128.031 23.912 128.031 23.8428C128.021 23.7638 127.962 23.7144 127.893 23.7144C126.929 23.6946 126.515 23.6452 125.895 23.5563L125.758 23.5366L126.289 22.855C126.462 22.6319 126.622 22.4273 126.775 22.2329L126.776 22.2315L126.776 22.2305L126.777 22.2293C127.082 21.8399 127.355 21.4912 127.637 21.1164C127.686 21.0571 127.677 20.9781 127.627 20.9287C127.578 20.8793 127.499 20.8793 127.44 20.9188C126.466 21.6597 125.807 22.282 125.029 23.0624C124.813 22.3512 124.764 22.0351 124.665 21.3436C124.655 21.2744 124.596 21.225 124.527 21.225C124.449 21.225 124.399 21.2744 124.38 21.3436V21.393L124.375 21.4343C124.261 22.3401 124.223 22.6344 124.301 23.7342C124.094 23.9811 123.838 24.2676 123.563 24.5738L123.573 24.5639C123.303 24.8589 122.908 25.3152 122.601 25.6708C122.264 24.1895 121.699 22.9208 121.063 22.1931L120.315 22.8352C120.209 22.5534 119.955 22.0801 119.597 21.5126C119.644 21.4699 119.694 21.4245 119.744 21.3778C119.946 21.1926 120.169 20.9875 120.355 20.8496L120.522 21.5313L121.851 20.6521C122.598 20.1581 123.661 19.605 124.577 19.2197L124.645 19.9803L126.023 19.4568C126.82 19.1505 128.316 18.8048 129.35 18.6566C129.497 19.6939 129.586 20.9287 129.468 22.5981L129.369 23.9317L129.95 23.8725C129.783 24.9492 129.458 26.3421 128.798 27.5077L128.119 28.7129L128.848 28.9401C128.169 30.2342 127.342 31.1825 126.358 32.1407L125.364 33.1088L126.112 33.6126Z" fill="#377EBD"/>
<path fill-rule="evenodd" clip-rule="evenodd" d="M110.12 16.4438C109.214 15.9103 107.404 15.1694 106.233 14.8138V14.7941C105.839 16.0091 105.475 17.4711 105.278 19.516L105.15 20.8496L104.471 20.6619C104.432 21.9757 104.52 23.7934 105.101 25.3838L105.573 26.6878L104.697 26.8162C105.239 28.5647 106.046 29.8884 107.04 31.2516L107.856 32.3679L106.892 32.8025C108.791 35.3018 111.458 37.1096 113.928 37.5442C114.017 37.5541 114.283 37.5837 114.716 37.5837C115.867 37.5837 117.294 37.5047 118.19 36.9219C118.721 36.5761 119.056 36.1909 119.833 34.9264C120.719 33.494 121.398 31.8048 121.673 30.2045C122.057 27.9818 121.585 25.4233 120.827 23.8724L119.843 24.7219L119.282 23.2303C119.056 22.6573 117.727 20.5236 116.212 18.9628L115.887 19.7333L114.726 18.6467C113.889 17.8762 112.659 16.9575 111.616 16.3154L111.389 17.1847L110.12 16.4438ZM116.418 32.3284C117.688 29.8192 118.564 27.7052 119.016 24.9491C119.026 24.88 118.987 24.8108 118.918 24.7911C118.849 24.7713 118.78 24.801 118.751 24.8701C117.845 26.915 117.156 28.3177 115.808 30.5601C115.326 29.4439 114.391 27.478 113.879 26.4507C114.824 24.2181 115.168 23.2204 115.483 21.4127C115.493 21.3435 115.454 21.2743 115.385 21.2546C115.316 21.2348 115.247 21.2645 115.218 21.3336C114.598 22.7166 114.106 23.5859 113.584 24.5046C113.546 24.5728 113.506 24.642 113.467 24.7117L113.466 24.7129C113.374 24.8751 113.28 25.0405 113.19 25.206C112.833 24.5545 112.341 23.7766 111.894 23.0708L111.832 22.9734C111.785 22.8989 111.738 22.8251 111.692 22.7522L111.691 22.7502C111.487 22.4275 111.294 22.1227 111.133 21.8572C111.432 20.6208 111.448 20.2628 111.494 19.2223L111.498 19.1505V19.0912C111.498 19.0221 111.458 18.9628 111.38 18.943C111.311 18.943 111.242 18.9727 111.222 19.0418C110.976 19.8321 110.858 20.1877 110.454 20.978C109.697 19.921 109.057 19.0616 108.073 18.0243C108.024 17.9749 107.945 17.9651 107.886 18.0046C107.827 18.0441 107.807 18.1231 107.847 18.1824C108.23 18.9134 108.594 19.5851 109.067 20.4446L109.569 21.3633H109.372C108.634 21.3336 108.152 21.3139 107.04 21.1459C106.961 21.1262 106.902 21.1756 106.882 21.2447C106.862 21.3139 106.902 21.383 106.961 21.4127C108.142 21.9066 108.713 22.0646 110.11 22.4005C110.474 22.9636 111.507 24.6034 112.108 25.7789C111.483 25.728 110.973 25.6917 110.493 25.6575L110.258 25.6406C110.161 25.634 110.066 25.6274 109.97 25.6209C109.215 25.5693 108.458 25.5175 107.384 25.4036C107.315 25.3937 107.246 25.4431 107.236 25.5122C107.217 25.5814 107.256 25.6505 107.325 25.6802C109.023 26.3465 110.151 26.5657 111.706 26.868L111.744 26.8754C112.039 26.9347 112.354 26.994 112.688 27.0533C113.24 27.9423 114.184 29.9477 114.716 31.1726C114.024 31.0636 113.439 30.9828 112.894 30.9075L112.893 30.9073L112.886 30.9064C112.644 30.8729 112.409 30.8405 112.177 30.8071L111.957 30.7766C111.11 30.6593 110.281 30.5444 109.185 30.3625C109.116 30.3527 109.047 30.3922 109.027 30.4613C109.008 30.5305 109.037 30.5996 109.096 30.6293C111.212 31.6468 112.836 32.0913 115.454 32.6346C115.68 32.931 115.946 33.4249 116.202 33.9089C116.25 33.9959 116.298 34.0841 116.346 34.172C116.494 34.4435 116.641 34.7124 116.782 34.9363C116.812 34.9758 116.851 35.0054 116.9 35.0054H116.95C117.009 34.9857 117.048 34.9165 117.038 34.8474C116.92 34.1361 116.743 33.5237 116.595 33.0199L116.578 32.9605C116.507 32.7092 116.445 32.4919 116.408 32.3086L116.418 32.3284Z" fill="#00BAB0"/>
</g>
<g clip-path="url(#clip1_444_11545)">
<path fill-rule="evenodd" clip-rule="evenodd" d="M155.272 18.9724C159.511 20.607 158.736 23.4426 156.246 24.8645C157.059 22.6357 156.159 20.0179 155.272 18.9724Z" fill="#00BAB0"/>
<path d="M157.741 38.4047C159.49 37.9306 160.442 36.65 160.18 35.0832C160.148 34.8899 160.095 34.6987 160.022 34.5097C160.647 33.7294 160.748 32.9734 160.719 32.4484C160.652 31.5029 160.124 30.5957 159.154 29.8178L158.983 29.6805C158.643 29.4264 158.298 29.2246 157.936 29.0453C158.12 28.0217 157.739 27.0471 156.872 26.3516C155.719 25.4273 154.027 25.2224 153.451 25.1692C153.191 24.0681 152.586 22.7652 151.548 21.9323C151.023 21.5114 150.433 21.2422 149.811 21.1524C148.663 20.9938 147.527 21.6622 146.733 22.512C146.459 22.2923 146.172 22.1362 145.887 22.0006C145.059 21.6529 144.163 21.6956 143.404 22.1275C142.538 22.6225 141.949 23.5439 141.806 24.6564C141.791 24.7926 141.798 24.9472 141.794 25.0925L141.68 25.5712L157.501 38.3706L157.741 38.4047Z" fill="#00BAB0"/>
<path d="M157.898 42.3225C157.16 43.5702 155.787 44.1601 154.439 43.9707L154.418 43.9729C154.526 44.8209 154.358 45.7083 153.907 46.4806C152.951 48.0928 151.023 48.7205 149.323 48.0816C149.255 48.3993 149.145 48.7009 148.97 48.9884C148.082 50.4693 146.174 50.9085 144.687 49.9573L144.253 49.6095L144.235 49.6321C143.377 51.0996 141.477 51.5274 140.013 50.5945C139.89 50.5143 139.776 50.4228 139.662 50.3313C138.571 51.0363 137.014 51.0139 135.673 50.1613C133.942 49.0701 133.237 46.9805 134.024 45.4377C130.503 42.4389 133.185 39.8706 133.683 39.3936C133.716 39.362 133.74 39.3396 133.751 39.3268C130.674 35.7994 133.821 32.8589 134.858 33.226C132.691 30.4102 136.565 28.5734 137.317 28.9911C137.4 28.5372 138.779 23.1945 142.715 25.5339C143.361 25.9215 143.84 26.4922 144.181 27.1189C145.177 26.7655 146.35 26.8697 147.326 27.5227C148.111 28.0406 148.646 28.8229 148.876 29.658C149.506 29.5502 150.185 29.6858 150.769 30.0798C151.633 30.6617 152.087 31.6389 152.031 32.5974C152.721 32.649 153.409 32.8664 154.047 33.2857C155.313 34.1153 155.993 35.5345 155.959 36.9566C156.187 37.0465 156.417 37.1568 156.629 37.2898C158.328 38.3739 158.906 40.6219 157.898 42.3225Z" fill="#377EBD"/>
<path d="M155.272 18.9724C159.511 20.607 158.736 23.4426 156.246 24.8646C157.059 22.6358 156.159 20.018 155.272 18.9724Z" fill="#082946"/>
<path d="M138.217 43.1325L138.244 43.0985L138.233 43.0894C137.838 43.3484 137.321 43.3615 136.897 43.0955C136.283 42.7149 136.106 41.8847 136.479 41.2552C136.742 40.8341 137.183 40.6116 137.629 40.6164C136.781 40.0845 135.682 40.3555 135.179 41.2161C134.677 42.0766 134.93 43.2095 135.767 43.7322C136.616 44.264 137.714 43.993 138.217 43.1325Z" fill="#082946"/>
<path d="M143.047 30.8L143.065 30.7774C142.765 30.9643 142.383 30.9735 142.071 30.7786C141.623 30.4944 141.492 29.887 141.771 29.4228C141.963 29.1127 142.286 28.9441 142.618 28.9505C142.002 28.5494 141.197 28.7585 140.823 29.388C140.45 30.0175 140.628 30.8478 141.252 31.2375C141.868 31.6386 142.673 31.4295 143.047 30.8Z" fill="#082946"/>
<path d="M146.806 33.4066L146.824 33.3839L146.813 33.3748C146.475 33.5865 146.051 33.6 145.704 33.3777C145.203 33.0681 145.053 32.3903 145.365 31.8604C145.574 31.5071 145.946 31.3229 146.32 31.325C145.629 30.9008 144.721 31.1206 144.304 31.8272C143.879 32.545 144.1 33.4845 144.791 33.9087C145.482 34.3329 146.381 34.1244 146.806 33.4066Z" fill="#082946"/>
<path d="M148.486 34.7723L148.513 34.7384L148.515 34.7589C148.264 35.1891 148.263 35.7276 148.551 36.1631C148.965 36.7925 149.844 36.9588 150.492 36.5489C150.926 36.2651 151.161 35.7847 151.139 35.3211C151.725 36.1809 151.453 37.3381 150.573 37.8966C149.674 38.4573 148.496 38.219 147.92 37.3478C147.335 36.488 147.607 35.3309 148.486 34.7723Z" fill="#082946"/>
<path d="M152.586 38.8235L152.604 38.8009L152.616 38.81C152.494 39.1956 152.595 39.6301 152.908 39.9181C153.36 40.3364 154.082 40.3018 154.517 39.8522C154.815 39.5517 154.911 39.1273 154.796 38.7564C155.422 39.3324 155.45 40.3027 154.846 40.915C154.242 41.5273 153.261 41.5582 152.636 40.9822C152.01 40.4061 151.983 39.4358 152.586 38.8235Z" fill="#082946"/>
<path d="M148.415 42.224L148.442 42.1901C148.298 42.6505 148.429 43.1647 148.79 43.5098C149.312 44.0034 150.168 43.9651 150.688 43.4341C151.04 43.0657 151.138 42.5687 151.016 42.1363C151.747 42.8152 151.784 43.9605 151.069 44.6881C150.366 45.4248 149.198 45.4546 148.468 44.7757C147.737 44.0969 147.7 42.9516 148.415 42.224Z" fill="#082946"/>
<path d="M144.556 38.9239L144.583 38.89L144.603 38.8878C144.43 39.4549 144.573 40.0714 145.025 40.4897C145.664 41.0953 146.695 41.0488 147.326 40.4026C147.752 39.9642 147.88 39.3606 147.726 38.8281C148.619 39.6555 148.643 41.0507 147.79 41.9274C146.928 42.8155 145.512 42.8507 144.619 42.0233C143.727 41.1958 143.702 39.8007 144.556 38.9239Z" fill="#082946"/>
<path d="M144.836 36.8444C144.834 36.8239 144.852 36.8013 144.852 36.8013C144.464 37.2149 143.864 37.4024 143.294 37.2242C142.467 36.9697 141.991 36.0673 142.234 35.2031C142.396 34.6269 142.837 34.2181 143.371 34.0894C142.232 33.7331 141.052 34.3854 140.719 35.549C140.386 36.7127 141.045 37.9478 142.184 38.304C143.323 38.6603 144.503 38.008 144.836 36.8444Z" fill="#082946"/>
<path d="M140.298 33.2224L140.316 33.1998C139.939 33.4362 139.463 33.4449 139.062 33.1973C138.503 32.842 138.321 32.064 138.679 31.4776C138.912 31.0699 139.323 30.8609 139.749 30.8679C138.967 30.3705 137.938 30.6237 137.461 31.4298C136.983 32.236 137.227 33.287 138.009 33.7844C138.792 34.2818 139.82 34.0286 140.298 33.2224Z" fill="#082946"/>
<path d="M137.964 38.2827C138.465 38.5922 139.075 38.5797 139.559 38.2802L139.523 38.3255C138.905 39.3535 137.615 39.6757 136.621 39.0453C135.626 38.415 135.317 37.0705 135.926 36.0538C136.545 35.0258 137.835 34.7036 138.829 35.3339C138.299 35.3173 137.76 35.5915 137.465 36.0988C137.033 36.8484 137.238 37.831 137.964 38.2827Z" fill="#082946"/>
<path d="M141.522 42.3081C141.937 42.5853 142.463 42.561 142.87 42.3111L142.852 42.3337C142.34 43.2055 141.241 43.4766 140.393 42.9447C139.544 42.4129 139.291 41.28 139.802 40.4082C140.314 39.5363 141.413 39.2653 142.261 39.7971C141.804 39.7832 141.354 40.017 141.102 40.4473C140.72 41.0881 140.909 41.9275 141.522 42.3081Z" fill="#082946"/>
<path d="M140.023 44.4547C140.026 44.4437 140.03 44.4327 140.033 44.4218L140.063 44.4083L140.035 44.4422C140.031 44.4464 140.027 44.4505 140.023 44.4547Z" fill="#082946"/>
<path d="M140.023 44.4547C139.284 45.2281 139.303 46.439 140.087 47.1598C140.854 47.8866 142.103 47.8481 142.854 47.0753C143.606 46.3025 143.591 45.0824 142.803 44.3578C142.93 44.831 142.813 45.3507 142.443 45.7416C141.887 46.3179 140.979 46.3514 140.41 45.8211C140.015 45.4679 139.888 44.9381 140.023 44.4547Z" fill="#082946"/>
<path d="M145.184 44.4279L145.202 44.4053C145.087 44.7591 145.184 45.1526 145.474 45.4224C145.88 45.8041 146.541 45.7759 146.949 45.3602C147.228 45.0823 147.309 44.7011 147.208 44.3597C147.776 44.89 147.795 45.7784 147.248 46.3434C146.701 46.9083 145.793 46.9418 145.224 46.4115C144.656 45.8813 144.637 44.9928 145.184 44.4279Z" fill="#082946"/>
<path d="M138.284 47.2565C138.585 47.4422 138.947 47.4351 139.238 47.2595L139.22 47.2822C138.864 47.889 138.089 48.0846 137.496 47.7019C136.914 47.3283 136.729 46.5298 137.085 45.9229C137.441 45.316 138.216 45.1204 138.809 45.5032C138.477 45.4968 138.175 45.6632 137.991 45.9621C137.731 46.4036 137.86 46.9905 138.284 47.2565Z" fill="#082946"/>
<path fill-rule="evenodd" clip-rule="evenodd" d="M157.758 38.4C159.496 37.9221 160.441 36.6449 160.18 35.0832C160.148 34.8899 160.095 34.6988 160.022 34.5098C160.647 33.7295 160.748 32.9735 160.719 32.4485C160.652 31.503 160.124 30.5958 159.154 29.8179L158.983 29.6806C158.643 29.4265 158.298 29.2246 157.936 29.0454C158.12 28.0218 157.739 27.0472 156.872 26.3517C155.719 25.4273 154.027 25.2225 153.451 25.1693C153.191 24.0682 152.586 22.7652 151.548 21.9324C151.023 21.5114 150.433 21.2423 149.811 21.1525C148.663 20.9938 147.527 21.6622 146.733 22.5121C146.459 22.2924 146.172 22.1363 145.887 22.0007C145.059 21.653 144.163 21.6956 143.404 22.1276C142.538 22.6226 141.949 23.544 141.806 24.6565C141.796 24.7473 141.796 24.8462 141.796 24.9452C141.796 24.9947 141.795 25.0441 141.794 25.0926L141.792 25.1045C138.56 24.0436 137.393 28.5748 137.317 28.9912C136.564 28.5735 132.691 30.4103 134.857 33.226C133.82 32.859 130.674 35.7995 133.751 39.3269C133.74 39.3396 133.716 39.3621 133.683 39.3936C133.185 39.8706 130.503 42.4389 134.024 45.4377C133.237 46.9805 133.942 49.0702 135.673 50.1613C137.014 51.014 138.571 51.0364 139.661 50.3313C139.775 50.4229 139.89 50.5144 140.013 50.5946C141.477 51.5275 143.376 51.0996 144.235 49.6322L144.253 49.6096L144.686 49.9574C146.173 50.9085 148.082 50.4694 148.97 48.9885C149.144 48.7009 149.255 48.3994 149.322 48.0817C151.022 48.7205 152.951 48.0929 153.907 46.4806C154.357 45.7084 154.525 44.821 154.418 43.973L154.439 43.9708C155.787 44.1601 157.16 43.5703 157.898 42.3226C158.632 41.0851 158.525 39.5578 157.758 38.4ZM143.235 25.9141C143.627 26.2571 143.939 26.6739 144.181 27.1189C145.177 26.7655 146.35 26.8698 147.326 27.5228C148.111 28.0407 148.646 28.8229 148.876 29.658C149.506 29.5502 150.185 29.6858 150.769 30.0799C151.633 30.6618 152.087 31.639 152.03 32.5975C152.72 32.649 153.408 32.8665 154.047 33.2858C155.313 34.1154 155.993 35.5346 155.959 36.9567C156.097 37.011 156.235 37.0729 156.37 37.1427C156.685 37.1387 156.975 37.0976 157.243 37.0388C158.173 36.8373 158.909 36.2939 158.747 35.3274C158.67 34.8385 158.344 34.4277 157.933 34.0982C157.35 33.6311 156.595 33.3118 156.104 33.1042L156.077 33.0927C157.176 33.008 158.099 33.2835 158.669 33.7411L158.726 33.7869C159.861 32.6527 159.025 31.5915 158.26 30.9784L158.124 30.8686C157.035 30.0514 155.66 29.8028 154.225 29.6744C155.016 29.3426 155.753 29.1717 156.413 29.1436C156.694 28.4204 156.446 27.8874 155.967 27.503C155.237 26.9173 153.975 26.6672 153.235 26.6312C153.092 27.5574 152.674 28.616 151.944 29.6661C152.21 28.0954 152.239 26.8914 152.113 25.9729C151.967 24.9633 151.444 23.7449 150.623 23.0859C150.314 22.8388 149.975 22.6779 149.594 22.6144C148.857 22.5058 147.887 23.2705 147.413 24.0245C147.85 24.7653 148.052 25.8002 147.889 27.0079C147.524 25.9903 147.137 25.2339 146.739 24.6546C146.517 24.3466 146.227 23.9837 145.874 23.7C145.702 23.5627 145.513 23.4481 145.317 23.3652C144.349 22.9599 143.406 23.6907 143.253 24.8872C143.206 25.2028 143.204 25.5549 143.235 25.9141C143.235 25.9141 143.235 25.9141 143.235 25.9141ZM152.461 45.0798C152.869 44.3846 153.026 43.5812 152.885 42.7989L152.91 42.8376L152.85 42.4919L153.185 42.612C154.299 43.0226 155.57 42.5367 156.216 41.4748C156.913 40.3245 156.681 38.8374 155.666 38.0229C155.632 37.9954 155.592 37.9685 155.553 37.9416C155.514 37.9146 155.474 37.8877 155.44 37.8603C155.082 37.6288 154.663 37.4969 154.237 37.49L154.03 37.4911L154.048 37.2822C154.095 36.2419 153.659 35.2421 152.872 34.6106C152.826 34.574 152.778 34.5402 152.73 34.5064C152.682 34.4727 152.635 34.4389 152.589 34.4023C152.053 34.0653 151.445 33.9119 150.817 33.947L150.559 33.9638L150.593 33.7118C150.713 32.9536 150.443 32.216 149.872 31.7584L149.701 31.6211C149.22 31.3094 148.612 31.2492 148.052 31.4324L147.823 31.5083L147.783 31.2537C147.683 30.5601 147.333 29.9448 146.797 29.5146C146.757 29.4826 146.715 29.4534 146.673 29.4242C146.63 29.395 146.588 29.3658 146.548 29.3337C145.935 28.9532 145.217 28.8424 144.512 29.0202L144.33 29.06L144.268 28.8802C144.076 28.3725 143.756 27.9299 143.345 27.6005C143.299 27.5639 143.254 27.5324 143.209 27.5009C143.164 27.4694 143.119 27.4379 143.073 27.4013C142.426 26.9932 141.665 26.8663 140.908 27.0393C140.1 27.2279 139.403 27.7465 138.968 28.4756C138.759 28.8289 138.615 29.1961 138.548 29.607L138.523 29.7545L138.371 29.7809C137.588 29.9152 136.904 30.3703 136.488 31.0768C135.998 31.8738 135.947 32.8732 136.343 33.7115L136.464 33.9575L136.2 34.006C135.418 34.1402 134.727 34.6271 134.31 35.3336C133.57 36.5609 133.823 38.139 134.952 39.0451L135.135 39.1915L134.967 39.3541C134.733 39.5755 134.533 39.8243 134.368 40.1005C133.38 41.7058 133.63 43.7088 134.93 44.7521C134.976 44.7887 135.024 44.8225 135.072 44.8563C135.12 44.8901 135.168 44.9239 135.213 44.9605C135.425 45.0934 135.656 45.2038 135.902 45.271L136.125 45.4132L135.985 45.635C135.319 46.6991 135.525 48.0544 136.449 48.7957C136.489 48.8277 136.529 48.8546 136.568 48.8815C136.607 48.9084 136.647 48.9354 136.687 48.9674C137.533 49.4788 138.641 49.3828 139.447 48.7284L139.617 48.5862L139.752 48.7687C139.878 48.9626 140.031 49.1224 140.202 49.2597C140.236 49.2872 140.273 49.3118 140.309 49.3364C140.346 49.3611 140.382 49.3857 140.417 49.4131C140.93 49.7318 141.542 49.833 142.138 49.6977C142.773 49.5377 143.318 49.1386 143.676 48.5522C143.835 48.3077 143.939 48.0379 143.99 47.7633L144.098 47.255L144.377 47.7018C144.516 47.9253 144.683 48.1148 144.889 48.2795L145.082 48.4351C145.573 48.7354 146.154 48.8296 146.709 48.6986C147.314 48.5521 147.829 48.1665 148.16 47.614C148.341 47.2946 148.449 46.9726 148.492 46.6161L148.523 46.3437L148.771 46.4314C150.127 46.9616 151.678 46.3841 152.461 45.0798Z" fill="#082946"/>
</g>
<path d="M163.59 64.3191C164.661 60.5848 163.682 55.4284 162.14 53.1747L162.138 53.1712C161.922 52.8573 161.633 52.7185 161.456 52.6584C161.278 52.5981 161.12 52.5843 161.022 52.5807C160.826 52.5734 160.643 52.6008 160.514 52.6247C160.241 52.6754 159.916 52.7693 159.576 52.8799C158.884 53.1057 157.952 53.462 156.883 53.8974C154.735 54.7718 151.938 56.0048 149.184 57.2639C146.405 58.5342 138.311 62.1831 137.025 63.5306C136.804 63.879 136.768 64.304 136.909 64.6748C136.95 64.8846 137.003 65.1473 137.083 65.405C137.089 65.4248 137.096 65.4444 137.103 65.4639C145.378 87.8887 171.277 77.871 163.59 64.3191Z" fill="#082946"/>
<path fill-rule="evenodd" clip-rule="evenodd" d="M162.545 57.4218C161.725 55.0216 159.836 54.0812 157.486 55.0344C151.151 57.6032 138.726 63.5091 139.103 63.7106C139.341 63.6413 158.394 56.3823 159.256 56.2039C160.118 56.0255 160.757 56.0516 161.08 56.8424C163.653 63.1429 162.527 71.0419 153.777 71.8956C145.027 72.7492 140.852 66.5375 137.817 64.2598C137.593 64.0761 137.629 64.1078 137.593 64.0761L139.826 66.9439C149.491 80.6626 168.679 75.3684 162.545 57.4218Z" fill="#082946"/>
<path fill-rule="evenodd" clip-rule="evenodd" d="M137.593 64.0761C137.65 64.3574 137.797 64.7427 137.88 65.0088C148.001 86.8177 167.043 75.1704 163.57 66.0579C162.733 70.8695 156.685 75.1148 150.94 74.019C144.615 72.8292 141.491 68.7354 137.679 64.2007L137.593 64.0761Z" fill="#377EBD"/>
<path d="M156.347 68.96L151.613 61.4726L151.568 61.5313C150.992 60.6253 150.927 60.2614 151.033 60.0783C151.192 59.8036 151.712 59.9302 152.713 60.3479L160.999 63.6863C162.959 64.4417 162.069 66.5922 160.708 68.2804C159.916 69.2713 158.802 70.3233 157.795 70.1827C157.324 70.103 156.852 69.7791 156.347 68.96Z" fill="#00BAB0"/>
<path d="M147.022 68.8849L148.556 61.3208L148.569 61.3935C148.727 60.4921 148.662 60.1282 148.463 59.9405C148.392 59.8536 148.305 59.8325 148.189 59.8044C147.95 59.781 147.502 59.9853 147.017 60.2155C146.532 60.4457 146.019 60.6688 145.739 60.8097L141.054 63.0041C139.423 63.791 140.841 67.0081 142.891 68.6555C144.098 69.6107 145.144 70.3079 146.108 70.1246C146.553 70.0588 146.851 69.7136 147.022 68.8849Z" fill="#00BAB0"/>
<path d="M151.556 58.4302C151.526 58.179 151.734 57.9513 152.527 57.5872L152.556 57.5943L159.388 54.6957C160.136 54.3903 160.936 54.376 161.358 54.6529C162.283 55.2607 162.425 57.0706 162.728 58.4673C163.241 60.8898 163.315 63.4838 161.363 62.6955L153.09 59.4299C152.081 59.0451 151.6 58.7542 151.556 58.4302Z" fill="#00BAB0"/>
<path d="M147.85 69.2603L149.294 61.8136L149.286 61.8464C149.473 60.952 149.66 60.6843 149.908 60.6749C150.01 60.6302 150.089 60.6842 150.197 60.7452C150.404 60.9001 150.713 61.393 151.035 61.9587C151.357 62.5243 151.737 63.1041 151.904 63.4233L155.639 69.7278C156.746 71.5985 154.342 72.1625 151.982 72.041C150.625 71.9545 148.913 71.8164 148.168 70.9739C147.827 70.6124 147.679 70.089 147.85 69.2603Z" fill="#00BAB0"/>
<path d="M39.0131 117.962C39.0131 120.979 36.5813 123.424 33.5815 123.424C30.5817 123.424 28.1499 120.979 28.1499 117.962C28.1499 114.945 30.5817 112.5 33.5815 112.5C36.5813 112.5 39.0131 114.945 39.0131 117.962Z" fill="#EDF1F5"/>
<path d="M54.2894 134.348C54.2894 139.25 50.3377 143.224 45.4631 143.224C40.5884 143.224 36.6367 139.25 36.6367 134.348C36.6367 129.446 40.5884 125.472 45.4631 125.472C50.3377 125.472 54.2894 129.446 54.2894 134.348Z" fill="#EDF1F5"/>
<path d="M61.4183 152.1C64.4181 152.1 66.8499 149.655 66.8499 146.638C66.8499 143.621 64.4181 141.176 61.4183 141.176C58.4185 141.176 55.9867 143.621 55.9867 146.638C55.9867 149.655 58.4185 152.1 61.4183 152.1Z" fill="#EDF1F5"/>
<defs>
<clipPath id="clip0_444_11545">
<rect width="27.9" height="25.2" fill="white" transform="translate(103.3 13.5)"/>
</clipPath>
<clipPath id="clip1_444_11545">
<rect width="25.6833" height="36.984" fill="white" transform="translate(148.492 13.05) rotate(38.735)"/>
</clipPath>
</defs>
</svg>
